solid Created by Gmsh
facet normal -0.933746 -0.357936 -0
  outer loop
    vertex -0.25 0 0.05
    vertex -0.283824 0.0882353 0
    vertex -0.25 0 -0.05
  endloop
endfacet
facet normal -0.933746 -0.357936 -0
  outer loop
    vertex -0.655882 1.05882 0.05
    vertex -0.689706 1.14706 0
    vertex -0.655882 1.05882 -0.05
  endloop
endfacet
facet normal -0.933746 -0.357936 0
  outer loop
    vertex -0.385294 0.352941 -0.05
    vertex -0.351471 0.264706 0
    vertex -0.385294 0.352941 0.05
  endloop
endfacet
facet normal -0.933746 -0.357936 0
  outer loop
    vertex -0.452941 0.529412 -0.05
    vertex -0.419118 0.441176 4.51563e-19
    vertex -0.452941 0.529412 0.05
  endloop
endfacet
facet normal -0.933746 -0.357936 -0
  outer loop
    vertex -0.791176 1.41176 0.05
    vertex -0.825 1.5 0
    vertex -0.791176 1.41176 -0.05
  endloop
endfacet
facet normal -0.933746 -0.357936 0
  outer loop
    vertex -0.723529 1.23529 -0.05
    vertex -0.689706 1.14706 0
    vertex -0.723529 1.23529 0.05
  endloop
endfacet
facet normal -0.933746 -0.357936 -0
  outer loop
    vertex -0.723529 1.23529 0.05
    vertex -0.757353 1.32353 0
    vertex -0.723529 1.23529 -0.05
  endloop
endfacet
facet normal -0.933746 -0.357936 0
  outer loop
    vertex -1.4 3 -0.05
    vertex -1.36618 2.91176 0
    vertex -1.4 3 0.05
  endloop
endfacet
facet normal -0.933746 -0.357936 -0
  outer loop
    vertex -1.26471 2.64706 0.05
    vertex -1.29853 2.73529 0
    vertex -1.26471 2.64706 -0.05
  endloop
endfacet
facet normal -0.933746 -0.357936 -0
  outer loop
    vertex -1.19706 2.47059 0.05
    vertex -1.23088 2.55882 0
    vertex -1.19706 2.47059 -0.05
  endloop
endfacet
facet normal -0.933746 -0.357936 -0
  outer loop
    vertex -1.06176 2.11765 0.05
    vertex -1.09559 2.20588 4.51563e-19
    vertex -1.06176 2.11765 -0.05
  endloop
endfacet
facet normal -0.933746 -0.357936 0
  outer loop
    vertex -0.994118 1.94118 -0.05
    vertex -0.960294 1.85294 0
    vertex -0.994118 1.94118 0.05
  endloop
endfacet
facet normal -0.933746 -0.357936 0
  outer loop
    vertex -0.926471 1.76471 -0.05
    vertex -0.892647 1.67647 0
    vertex -0.926471 1.76471 0.05
  endloop
endfacet
facet normal -0.933746 -0.357936 0
  outer loop
    vertex -0.791176 1.41176 -0.05
    vertex -0.757353 1.32353 0
    vertex -0.791176 1.41176 0.05
  endloop
endfacet
facet normal -0.933746 -0.357936 0
  outer loop
    vertex -0.588235 0.882353 -0.05
    vertex -0.554412 0.794118 0
    vertex -0.588235 0.882353 0.05
  endloop
endfacet
facet normal -0.933746 -0.357936 0
  outer loop
    vertex -1.33235 2.82353 -0.05
    vertex -1.29853 2.73529 0
    vertex -1.33235 2.82353 0.05
  endloop
endfacet
facet normal -0.933746 -0.357936 0
  outer loop
    vertex -1.19706 2.47059 -0.05
    vertex -1.16324 2.38235 0
    vertex -1.19706 2.47059 0.05
  endloop
endfacet
facet normal -0.933746 -0.357936 0
  outer loop
    vertex -1.12941 2.29412 -0.05
    vertex -1.09559 2.20588 4.51563e-19
    vertex -1.12941 2.29412 0.05
  endloop
endfacet
facet normal -0.933746 -0.357936 0
  outer loop
    vertex -1.06176 2.11765 -0.05
    vertex -1.02794 2.02941 0
    vertex -1.06176 2.11765 0.05
  endloop
endfacet
facet normal -0.933746 -0.357936 -0
  outer loop
    vertex -0.520588 0.705882 0.05
    vertex -0.554412 0.794118 0
    vertex -0.520588 0.705882 -0.05
  endloop
endfacet
facet normal -0.933746 -0.357936 -0
  outer loop
    vertex -0.858824 1.58824 0.05
    vertex -0.892647 1.67647 0
    vertex -0.858824 1.58824 -0.05
  endloop
endfacet
facet normal -0.933746 -0.357936 0
  outer loop
    vertex -0.858824 1.58824 -0.05
    vertex -0.825 1.5 0
    vertex -0.858824 1.58824 0.05
  endloop
endfacet
facet normal -0.933746 -0.357936 -0
  outer loop
    vertex -0.385294 0.352941 0.05
    vertex -0.419118 0.441176 4.51563e-19
    vertex -0.385294 0.352941 -0.05
  endloop
endfacet
facet normal -0.933746 -0.357936 0
  outer loop
    vertex -0.655882 1.05882 -0.05
    vertex -0.622059 0.970588 0
    vertex -0.655882 1.05882 0.05
  endloop
endfacet
facet normal -0.933746 -0.357936 -0
  outer loop
    vertex -0.452941 0.529412 0.05
    vertex -0.486765 0.617647 0
    vertex -0.452941 0.529412 -0.05
  endloop
endfacet
facet normal -0.933746 -0.357936 -0
  outer loop
    vertex -1.33235 2.82353 0.05
    vertex -1.36618 2.91176 0
    vertex -1.33235 2.82353 -0.05
  endloop
endfacet
facet normal -0.933746 -0.357936 -0
  outer loop
    vertex -1.12941 2.29412 0.05
    vertex -1.16324 2.38235 0
    vertex -1.12941 2.29412 -0.05
  endloop
endfacet
facet normal -0.933746 -0.357936 -0
  outer loop
    vertex -0.994118 1.94118 0.05
    vertex -1.02794 2.02941 0
    vertex -0.994118 1.94118 -0.05
  endloop
endfacet
facet normal -0.933746 -0.357936 0
  outer loop
    vertex -0.317647 0.176471 -0.05
    vertex -0.283824 0.0882353 0
    vertex -0.317647 0.176471 0.05
  endloop
endfacet
facet normal -0.933746 -0.357936 -0
  outer loop
    vertex -0.926471 1.76471 0.05
    vertex -0.960294 1.85294 0
    vertex -0.926471 1.76471 -0.05
  endloop
endfacet
facet normal -0.933746 -0.357936 -0
  outer loop
    vertex -0.588235 0.882353 0.05
    vertex -0.622059 0.970588 0
    vertex -0.588235 0.882353 -0.05
  endloop
endfacet
facet normal -0.933746 -0.357936 0
  outer loop
    vertex -0.520588 0.705882 -0.05
    vertex -0.486765 0.617647 0
    vertex -0.520588 0.705882 0.05
  endloop
endfacet
facet normal -0.933746 -0.357936 0
  outer loop
    vertex -1.26471 2.64706 -0.05
    vertex -1.23088 2.55882 0
    vertex -1.26471 2.64706 0.05
  endloop
endfacet
facet normal -0.933746 -0.357936 -0
  outer loop
    vertex -0.317647 0.176471 0.05
    vertex -0.351471 0.264706 0
    vertex -0.317647 0.176471 -0.05
  endloop
endfacet
facet normal -0.933746 -0.357936 4.13047e-15
  outer loop
    vertex -0.317647 0.176471 0.05
    vertex -0.283824 0.0882353 0
    vertex -0.25 0 0.05
  endloop
endfacet
facet normal -0.933746 -0.357936 -4.13047e-15
  outer loop
    vertex -0.25 0 -0.05
    vertex -0.283824 0.0882353 0
    vertex -0.317647 0.176471 -0.05
  endloop
endfacet
facet normal -0.933746 -0.357936 3.67153e-15
  outer loop
    vertex -1.4 3 0.05
    vertex -1.36618 2.91176 0
    vertex -1.33235 2.82353 0.05
  endloop
endfacet
facet normal -0.933746 -0.357936 -3.67153e-15
  outer loop
    vertex -1.33235 2.82353 -0.05
    vertex -1.36618 2.91176 0
    vertex -1.4 3 -0.05
  endloop
endfacet
facet normal -0.933746 -0.357936 2.11113e-15
  outer loop
    vertex -1.33235 2.82353 0.05
    vertex -1.29853 2.73529 0
    vertex -1.26471 2.64706 0.05
  endloop
endfacet
facet normal -0.933746 -0.357936 4.58941e-16
  outer loop
    vertex -1.26471 2.64706 0.05
    vertex -1.23088 2.55882 0
    vertex -1.19706 2.47059 0.05
  endloop
endfacet
facet normal -0.933746 -0.357936 3.67153e-15
  outer loop
    vertex -1.19706 2.47059 0.05
    vertex -1.16324 2.38235 0
    vertex -1.12941 2.29412 0.05
  endloop
endfacet
facet normal -0.933746 -0.357936 2.11113e-15
  outer loop
    vertex -1.12941 2.29412 0.05
    vertex -1.09559 2.20588 4.51563e-19
    vertex -1.06176 2.11765 0.05
  endloop
endfacet
facet normal -0.933746 -0.357936 3.67153e-15
  outer loop
    vertex -1.06176 2.11765 0.05
    vertex -1.02794 2.02941 0
    vertex -0.994118 1.94118 0.05
  endloop
endfacet
facet normal -0.933746 -0.357936 3.67153e-15
  outer loop
    vertex -0.994118 1.94118 0.05
    vertex -0.960294 1.85294 0
    vertex -0.926471 1.76471 0.05
  endloop
endfacet
facet normal -0.933746 -0.357936 2.84543e-15
  outer loop
    vertex -0.926471 1.76471 0.05
    vertex -0.892647 1.67647 0
    vertex -0.858824 1.58824 0.05
  endloop
endfacet
facet normal -0.933746 -0.357936 3.1208e-15
  outer loop
    vertex -0.858824 1.58824 0.05
    vertex -0.825 1.5 0
    vertex -0.791176 1.41176 0.05
  endloop
endfacet
facet normal -0.933746 -0.357936 3.94689e-15
  outer loop
    vertex -0.791176 1.41176 0.05
    vertex -0.757353 1.32353 0
    vertex -0.723529 1.23529 0.05
  endloop
endfacet
facet normal -0.933746 -0.357936 3.1208e-15
  outer loop
    vertex -0.723529 1.23529 0.05
    vertex -0.689706 1.14706 0
    vertex -0.655882 1.05882 0.05
  endloop
endfacet
facet normal -0.933746 -0.357936 2.84543e-15
  outer loop
    vertex -0.655882 1.05882 0.05
    vertex -0.622059 0.970588 0
    vertex -0.588235 0.882353 0.05
  endloop
endfacet
facet normal -0.933746 -0.357936 3.94689e-15
  outer loop
    vertex -0.588235 0.882353 0.05
    vertex -0.554412 0.794118 0
    vertex -0.520588 0.705882 0.05
  endloop
endfacet
facet normal -0.933746 -0.357936 3.1208e-15
  outer loop
    vertex -0.520588 0.705882 0.05
    vertex -0.486765 0.617647 0
    vertex -0.452941 0.529412 0.05
  endloop
endfacet
facet normal -0.933746 -0.357936 2.11113e-15
  outer loop
    vertex -0.452941 0.529412 0.05
    vertex -0.419118 0.441176 4.51563e-19
    vertex -0.385294 0.352941 0.05
  endloop
endfacet
facet normal -0.933746 -0.357936 3.1208e-15
  outer loop
    vertex -0.385294 0.352941 0.05
    vertex -0.351471 0.264706 0
    vertex -0.317647 0.176471 0.05
  endloop
endfacet
facet normal -0.933746 -0.357936 -2.01934e-15
  outer loop
    vertex -1.26471 2.64706 -0.05
    vertex -1.29853 2.73529 0
    vertex -1.33235 2.82353 -0.05
  endloop
endfacet
facet normal -0.933746 -0.357936 -4.58941e-16
  outer loop
    vertex -1.19706 2.47059 -0.05
    vertex -1.23088 2.55882 0
    vertex -1.26471 2.64706 -0.05
  endloop
endfacet
facet normal -0.933746 -0.357936 -3.67153e-15
  outer loop
    vertex -1.12941 2.29412 -0.05
    vertex -1.16324 2.38235 0
    vertex -1.19706 2.47059 -0.05
  endloop
endfacet
facet normal -0.933746 -0.357936 -2.01934e-15
  outer loop
    vertex -1.06176 2.11765 -0.05
    vertex -1.09559 2.20588 4.51563e-19
    vertex -1.12941 2.29412 -0.05
  endloop
endfacet
facet normal -0.933746 -0.357936 -3.67153e-15
  outer loop
    vertex -0.994118 1.94118 -0.05
    vertex -1.02794 2.02941 0
    vertex -1.06176 2.11765 -0.05
  endloop
endfacet
facet normal -0.933746 -0.357936 -3.67153e-15
  outer loop
    vertex -0.926471 1.76471 -0.05
    vertex -0.960294 1.85294 0
    vertex -0.994118 1.94118 -0.05
  endloop
endfacet
facet normal -0.933746 -0.357936 -2.84543e-15
  outer loop
    vertex -0.858824 1.58824 -0.05
    vertex -0.892647 1.67647 0
    vertex -0.926471 1.76471 -0.05
  endloop
endfacet
facet normal -0.933746 -0.357936 -3.1208e-15
  outer loop
    vertex -0.791176 1.41176 -0.05
    vertex -0.825 1.5 0
    vertex -0.858824 1.58824 -0.05
  endloop
endfacet
facet normal -0.933746 -0.357936 -3.94689e-15
  outer loop
    vertex -0.723529 1.23529 -0.05
    vertex -0.757353 1.32353 0
    vertex -0.791176 1.41176 -0.05
  endloop
endfacet
facet normal -0.933746 -0.357936 -3.1208e-15
  outer loop
    vertex -0.655882 1.05882 -0.05
    vertex -0.689706 1.14706 0
    vertex -0.723529 1.23529 -0.05
  endloop
endfacet
facet normal -0.933746 -0.357936 -2.84543e-15
  outer loop
    vertex -0.588235 0.882353 -0.05
    vertex -0.622059 0.970588 0
    vertex -0.655882 1.05882 -0.05
  endloop
endfacet
facet normal -0.933746 -0.357936 -3.8551e-15
  outer loop
    vertex -0.520588 0.705882 -0.05
    vertex -0.554412 0.794118 0
    vertex -0.588235 0.882353 -0.05
  endloop
endfacet
facet normal -0.933746 -0.357936 -3.1208e-15
  outer loop
    vertex -0.452941 0.529412 -0.05
    vertex -0.486765 0.617647 0
    vertex -0.520588 0.705882 -0.05
  endloop
endfacet
facet normal -0.933746 -0.357936 -2.01934e-15
  outer loop
    vertex -0.385294 0.352941 -0.05
    vertex -0.419118 0.441176 4.51563e-19
    vertex -0.452941 0.529412 -0.05
  endloop
endfacet
facet normal -0.933746 -0.357936 -3.1208e-15
  outer loop
    vertex -0.317647 0.176471 -0.05
    vertex -0.351471 0.264706 0
    vertex -0.385294 0.352941 -0.05
  endloop
endfacet
facet normal 0.933746 -0.357936 -1.58956e-15
  outer loop
    vertex 1.26471 2.64706 -0.05
    vertex 1.29853 2.73529 -2.09802e-16
    vertex 1.26471 2.64706 0.05
  endloop
endfacet
facet normal 0.933746 -0.357936 -6.91111e-17
  outer loop
    vertex 0.994118 1.94118 0.05
    vertex 0.960294 1.85294 -3.46945e-18
    vertex 0.994118 1.94118 -0.05
  endloop
endfacet
facet normal 0.933746 -0.357936 -9.93472e-16
  outer loop
    vertex 0.385294 0.352941 0.05
    vertex 0.351471 0.264706 1.73472e-18
    vertex 0.385294 0.352941 -0.05
  endloop
endfacet
facet normal 0.933746 -0.357936 5.52889e-16
  outer loop
    vertex 0.791176 1.41176 -0.05
    vertex 0.825 1.5 1.73472e-18
    vertex 0.791176 1.41176 0.05
  endloop
endfacet
facet normal 0.933746 -0.357936 -1.20944e-16
  outer loop
    vertex 0.452941 0.529412 0.05
    vertex 0.419118 0.441176 0
    vertex 0.452941 0.529412 -0.05
  endloop
endfacet
facet normal 0.933746 -0.357936 -1.555e-16
  outer loop
    vertex 0.520588 0.705882 -0.05
    vertex 0.554412 0.794118 -3.78629e-18
    vertex 0.520588 0.705882 0.05
  endloop
endfacet
facet normal 0.933746 -0.357936 0
  outer loop
    vertex 0.723529 1.23529 -0.05
    vertex 0.757353 1.32353 0
    vertex 0.723529 1.23529 0.05
  endloop
endfacet
facet normal 0.933746 -0.357936 -6.91111e-17
  outer loop
    vertex 0.655882 1.05882 -0.05
    vertex 0.689706 1.14706 1.73472e-18
    vertex 0.655882 1.05882 0.05
  endloop
endfacet
facet normal 0.933746 -0.357936 0
  outer loop
    vertex 1.4 3 0.05
    vertex 1.36618 2.91176 0
    vertex 1.4 3 -0.05
  endloop
endfacet
facet normal 0.933746 -0.357936 0
  outer loop
    vertex 1.19706 2.47059 -0.05
    vertex 1.23088 2.55882 0
    vertex 1.19706 2.47059 0.05
  endloop
endfacet
facet normal 0.933746 -0.357936 5.52889e-16
  outer loop
    vertex 0.791176 1.41176 0.05
    vertex 0.757353 1.32353 0
    vertex 0.791176 1.41176 -0.05
  endloop
endfacet
facet normal 0.933746 -0.357936 0
  outer loop
    vertex 0.25 0 -0.05
    vertex 0.283824 0.0882353 0
    vertex 0.25 0 0.05
  endloop
endfacet
facet normal 0.933746 -0.357936 0
  outer loop
    vertex 0.926471 1.76471 0.05
    vertex 0.892647 1.67647 0
    vertex 0.926471 1.76471 -0.05
  endloop
endfacet
facet normal 0.933746 -0.357936 0
  outer loop
    vertex 1.19706 2.47059 0.05
    vertex 1.16324 2.38235 -4.51563e-19
    vertex 1.19706 2.47059 -0.05
  endloop
endfacet
facet normal 0.933746 -0.357936 -1.555e-16
  outer loop
    vertex 0.588235 0.882353 -0.05
    vertex 0.622059 0.970588 3.46945e-18
    vertex 0.588235 0.882353 0.05
  endloop
endfacet
facet normal 0.933746 -0.357936 5.52889e-16
  outer loop
    vertex 0.858824 1.58824 -0.05
    vertex 0.892647 1.67647 0
    vertex 0.858824 1.58824 0.05
  endloop
endfacet
facet normal 0.933746 -0.357936 8.94125e-16
  outer loop
    vertex 0.317647 0.176471 0.05
    vertex 0.283824 0.0882353 0
    vertex 0.317647 0.176471 -0.05
  endloop
endfacet
facet normal 0.933746 -0.357936 4.83778e-16
  outer loop
    vertex 1.06176 2.11765 0.05
    vertex 1.02794 2.02941 1.73472e-18
    vertex 1.06176 2.11765 -0.05
  endloop
endfacet
facet normal 0.933746 -0.357936 4.83778e-16
  outer loop
    vertex 1.06176 2.11765 -0.05
    vertex 1.09559 2.20588 8.68742e-17
    vertex 1.06176 2.11765 0.05
  endloop
endfacet
facet normal 0.933746 -0.357936 0
  outer loop
    vertex 0.723529 1.23529 0.05
    vertex 0.689706 1.14706 1.73472e-18
    vertex 0.723529 1.23529 -0.05
  endloop
endfacet
facet normal 0.933746 -0.357936 1.58956e-15
  outer loop
    vertex 1.33235 2.82353 0.05
    vertex 1.29853 2.73529 -2.09802e-16
    vertex 1.33235 2.82353 -0.05
  endloop
endfacet
facet normal 0.933746 -0.357936 5.52889e-16
  outer loop
    vertex 0.858824 1.58824 0.05
    vertex 0.825 1.5 1.73472e-18
    vertex 0.858824 1.58824 -0.05
  endloop
endfacet
facet normal 0.933746 -0.357936 -1.20944e-16
  outer loop
    vertex 0.452941 0.529412 -0.05
    vertex 0.486765 0.617647 1.73472e-18
    vertex 0.452941 0.529412 0.05
  endloop
endfacet
facet normal 0.933746 -0.357936 4.83778e-16
  outer loop
    vertex 1.12941 2.29412 0.05
    vertex 1.09559 2.20588 8.68742e-17
    vertex 1.12941 2.29412 -0.05
  endloop
endfacet
facet normal 0.933746 -0.357936 -1.555e-16
  outer loop
    vertex 0.588235 0.882353 0.05
    vertex 0.554412 0.794118 -3.78629e-18
    vertex 0.588235 0.882353 -0.05
  endloop
endfacet
facet normal 0.933746 -0.357936 -1.555e-16
  outer loop
    vertex 0.520588 0.705882 0.05
    vertex 0.486765 0.617647 1.73472e-18
    vertex 0.520588 0.705882 -0.05
  endloop
endfacet
facet normal 0.933746 -0.357936 -9.93472e-16
  outer loop
    vertex 0.385294 0.352941 -0.05
    vertex 0.419118 0.441176 0
    vertex 0.385294 0.352941 0.05
  endloop
endfacet
facet normal 0.933746 -0.357936 0
  outer loop
    vertex 0.926471 1.76471 -0.05
    vertex 0.960294 1.85294 -3.46945e-18
    vertex 0.926471 1.76471 0.05
  endloop
endfacet
facet normal 0.933746 -0.357936 -6.91111e-17
  outer loop
    vertex 0.655882 1.05882 0.05
    vertex 0.622059 0.970588 3.46945e-18
    vertex 0.655882 1.05882 -0.05
  endloop
endfacet
facet normal 0.933746 -0.357936 1.58956e-15
  outer loop
    vertex 1.33235 2.82353 -0.05
    vertex 1.36618 2.91176 0
    vertex 1.33235 2.82353 0.05
  endloop
endfacet
facet normal 0.933746 -0.357936 -6.91111e-17
  outer loop
    vertex 0.994118 1.94118 -0.05
    vertex 1.02794 2.02941 1.73472e-18
    vertex 0.994118 1.94118 0.05
  endloop
endfacet
facet normal 0.933746 -0.357936 -1.58956e-15
  outer loop
    vertex 1.26471 2.64706 0.05
    vertex 1.23088 2.55882 0
    vertex 1.26471 2.64706 -0.05
  endloop
endfacet
facet normal 0.933746 -0.357936 8.94125e-16
  outer loop
    vertex 0.317647 0.176471 -0.05
    vertex 0.351471 0.264706 1.73472e-18
    vertex 0.317647 0.176471 0.05
  endloop
endfacet
facet normal 0.933746 -0.357936 4.83778e-16
  outer loop
    vertex 1.12941 2.29412 -0.05
    vertex 1.16324 2.38235 -4.51563e-19
    vertex 1.12941 2.29412 0.05
  endloop
endfacet
facet normal 0.933746 -0.357936 3.57974e-15
  outer loop
    vertex 0.25 0 0.05
    vertex 0.283824 0.0882353 0
    vertex 0.317647 0.176471 0.05
  endloop
endfacet
facet normal 0.933746 -0.357936 -2.75365e-15
  outer loop
    vertex 0.317647 0.176471 -0.05
    vertex 0.283824 0.0882353 0
    vertex 0.25 0 -0.05
  endloop
endfacet
facet normal 0.933746 -0.357936 6.79232e-15
  outer loop
    vertex 1.33235 2.82353 0.05
    vertex 1.36618 2.91176 0
    vertex 1.4 3 0.05
  endloop
endfacet
facet normal 0.933746 -0.357936 -5.32371e-15
  outer loop
    vertex 1.4 3 -0.05
    vertex 1.36618 2.91176 0
    vertex 1.33235 2.82353 -0.05
  endloop
endfacet
facet normal 0.933746 -0.357936 2.01934e-15
  outer loop
    vertex 1.26471 2.64706 0.05
    vertex 1.29853 2.73529 -2.09802e-16
    vertex 1.33235 2.82353 0.05
  endloop
endfacet
facet normal 0.933746 -0.357936 4.58941e-16
  outer loop
    vertex 1.19706 2.47059 0.05
    vertex 1.23088 2.55882 0
    vertex 1.26471 2.64706 0.05
  endloop
endfacet
facet normal 0.933746 -0.357936 3.67153e-15
  outer loop
    vertex 1.12941 2.29412 0.05
    vertex 1.16324 2.38235 -4.51563e-19
    vertex 1.19706 2.47059 0.05
  endloop
endfacet
facet normal 0.933746 -0.357936 6.2416e-15
  outer loop
    vertex 1.06176 2.11765 0.05
    vertex 1.09559 2.20588 8.68742e-17
    vertex 1.12941 2.29412 0.05
  endloop
endfacet
facet normal 0.933746 -0.357936 4.58941e-15
  outer loop
    vertex 0.994118 1.94118 0.05
    vertex 1.02794 2.02941 1.73472e-18
    vertex 1.06176 2.11765 0.05
  endloop
endfacet
facet normal 0.933746 -0.357936 4.13047e-15
  outer loop
    vertex 0.926471 1.76471 0.05
    vertex 0.960294 1.85294 -3.46945e-18
    vertex 0.994118 1.94118 0.05
  endloop
endfacet
facet normal 0.933746 -0.357936 4.49762e-15
  outer loop
    vertex 0.858824 1.58824 0.05
    vertex 0.892647 1.67647 0
    vertex 0.926471 1.76471 0.05
  endloop
endfacet
facet normal 0.933746 -0.357936 2.57007e-15
  outer loop
    vertex 0.791176 1.41176 0.05
    vertex 0.825 1.5 1.73472e-18
    vertex 0.858824 1.58824 0.05
  endloop
endfacet
facet normal 0.933746 -0.357936 3.94689e-15
  outer loop
    vertex 0.723529 1.23529 0.05
    vertex 0.757353 1.32353 0
    vertex 0.791176 1.41176 0.05
  endloop
endfacet
facet normal 0.933746 -0.357936 3.67153e-15
  outer loop
    vertex 0.655882 1.05882 0.05
    vertex 0.689706 1.14706 1.73472e-18
    vertex 0.723529 1.23529 0.05
  endloop
endfacet
facet normal 0.933746 -0.357936 3.76332e-15
  outer loop
    vertex 0.588235 0.882353 0.05
    vertex 0.622059 0.970588 3.46945e-18
    vertex 0.655882 1.05882 0.05
  endloop
endfacet
facet normal 0.933746 -0.357936 4.40583e-15
  outer loop
    vertex 0.520588 0.705882 0.05
    vertex 0.554412 0.794118 -3.78629e-18
    vertex 0.588235 0.882353 0.05
  endloop
endfacet
facet normal 0.933746 -0.357936 2.38649e-15
  outer loop
    vertex 0.452941 0.529412 0.05
    vertex 0.486765 0.617647 1.73472e-18
    vertex 0.520588 0.705882 0.05
  endloop
endfacet
facet normal 0.933746 -0.357936 2.01934e-15
  outer loop
    vertex 0.385294 0.352941 0.05
    vertex 0.419118 0.441176 0
    vertex 0.452941 0.529412 0.05
  endloop
endfacet
facet normal 0.933746 -0.357936 3.1208e-15
  outer loop
    vertex 0.317647 0.176471 0.05
    vertex 0.351471 0.264706 1.73472e-18
    vertex 0.385294 0.352941 0.05
  endloop
endfacet
facet normal 0.933746 -0.357936 -3.21259e-15
  outer loop
    vertex 0.385294 0.352941 -0.05
    vertex 0.351471 0.264706 1.73472e-18
    vertex 0.317647 0.176471 -0.05
  endloop
endfacet
facet normal 0.933746 -0.357936 -3.21259e-15
  outer loop
    vertex 0.452941 0.529412 -0.05
    vertex 0.419118 0.441176 0
    vertex 0.385294 0.352941 -0.05
  endloop
endfacet
facet normal 0.933746 -0.357936 -2.57007e-15
  outer loop
    vertex 0.520588 0.705882 -0.05
    vertex 0.486765 0.617647 1.73472e-18
    vertex 0.452941 0.529412 -0.05
  endloop
endfacet
facet normal 0.933746 -0.357936 -4.77299e-15
  outer loop
    vertex 0.588235 0.882353 -0.05
    vertex 0.554412 0.794118 -3.78629e-18
    vertex 0.520588 0.705882 -0.05
  endloop
endfacet
facet normal 0.933746 -0.357936 -4.13047e-15
  outer loop
    vertex 0.655882 1.05882 -0.05
    vertex 0.622059 0.970588 3.46945e-18
    vertex 0.588235 0.882353 -0.05
  endloop
endfacet
facet normal 0.933746 -0.357936 -3.67153e-15
  outer loop
    vertex 0.723529 1.23529 -0.05
    vertex 0.689706 1.14706 1.73472e-18
    vertex 0.655882 1.05882 -0.05
  endloop
endfacet
facet normal 0.933746 -0.357936 -3.39616e-15
  outer loop
    vertex 0.791176 1.41176 -0.05
    vertex 0.757353 1.32353 0
    vertex 0.723529 1.23529 -0.05
  endloop
endfacet
facet normal 0.933746 -0.357936 -1.5604e-15
  outer loop
    vertex 0.858824 1.58824 -0.05
    vertex 0.825 1.5 1.73472e-18
    vertex 0.791176 1.41176 -0.05
  endloop
endfacet
facet normal 0.933746 -0.357936 -3.94689e-15
  outer loop
    vertex 0.926471 1.76471 -0.05
    vertex 0.892647 1.67647 0
    vertex 0.858824 1.58824 -0.05
  endloop
endfacet
facet normal 0.933746 -0.357936 -4.22226e-15
  outer loop
    vertex 0.994118 1.94118 -0.05
    vertex 0.960294 1.85294 -3.46945e-18
    vertex 0.926471 1.76471 -0.05
  endloop
endfacet
facet normal 0.933746 -0.357936 -4.22226e-15
  outer loop
    vertex 1.06176 2.11765 -0.05
    vertex 1.02794 2.02941 1.73472e-18
    vertex 0.994118 1.94118 -0.05
  endloop
endfacet
facet normal 0.933746 -0.357936 -5.32371e-15
  outer loop
    vertex 1.12941 2.29412 -0.05
    vertex 1.09559 2.20588 8.68742e-17
    vertex 1.06176 2.11765 -0.05
  endloop
endfacet
facet normal 0.933746 -0.357936 -3.1208e-15
  outer loop
    vertex 1.19706 2.47059 -0.05
    vertex 1.16324 2.38235 -4.51563e-19
    vertex 1.12941 2.29412 -0.05
  endloop
endfacet
facet normal 0.933746 -0.357936 -2.11113e-15
  outer loop
    vertex 1.26471 2.64706 -0.05
    vertex 1.23088 2.55882 0
    vertex 1.19706 2.47059 -0.05
  endloop
endfacet
facet normal 0.933746 -0.357936 -2.01934e-15
  outer loop
    vertex 1.33235 2.82353 -0.05
    vertex 1.29853 2.73529 -2.09802e-16
    vertex 1.26471 2.64706 -0.05
  endloop
endfacet
facet normal 4.44089e-15 1 -0
  outer loop
    vertex -2.4 -2.6 -0.05
    vertex -2.5 -2.6 0
    vertex -2.4 -2.6 0.05
  endloop
endfacet
facet normal -4.44089e-15 1 0
  outer loop
    vertex 3 -2.6 0.05
    vertex 3.1 -2.6 0
    vertex 3 -2.6 -0.05
  endloop
endfacet
facet normal -4.44089e-15 1 0
  outer loop
    vertex 3.4 -2.6 0.05
    vertex 3.5 -2.6 0
    vertex 3.4 -2.6 -0.05
  endloop
endfacet
facet normal 4.44089e-15 1 -0
  outer loop
    vertex 3.4 -2.6 -0.05
    vertex 3.3 -2.6 0
    vertex 3.4 -2.6 0.05
  endloop
endfacet
facet normal 4.44089e-15 1 -0
  outer loop
    vertex -3.6 -2.6 -0.05
    vertex -3.7 -2.6 0
    vertex -3.6 -2.6 0.05
  endloop
endfacet
facet normal 4.44089e-15 1 -0
  outer loop
    vertex -3.4 -2.6 -0.05
    vertex -3.5 -2.6 -8.85063e-19
    vertex -3.4 -2.6 0.05
  endloop
endfacet
facet normal -4.44089e-15 1 0
  outer loop
    vertex -3.2 -2.6 0.05
    vertex -3.1 -2.6 -1.23909e-18
    vertex -3.2 -2.6 -0.05
  endloop
endfacet
facet normal -4.44089e-15 1 0
  outer loop
    vertex -2.4 -2.6 0.05
    vertex -2.3 -2.6 -1.23909e-18
    vertex -2.4 -2.6 -0.05
  endloop
endfacet
facet normal -4.44089e-15 1 0
  outer loop
    vertex -3 -2.6 0.05
    vertex -2.9 -2.6 -8.85063e-19
    vertex -3 -2.6 -0.05
  endloop
endfacet
facet normal 4.44089e-15 1 -0
  outer loop
    vertex 2.4 -2.6 -0.05
    vertex 2.3 -2.6 -1.23909e-18
    vertex 2.4 -2.6 0.05
  endloop
endfacet
facet normal -4.44089e-15 1 0
  outer loop
    vertex 2.6 -2.6 0.05
    vertex 2.7 -2.6 0
    vertex 2.6 -2.6 -0.05
  endloop
endfacet
facet normal -4.44089e-15 1 0
  outer loop
    vertex 2.4 -2.6 0.05
    vertex 2.5 -2.6 0
    vertex 2.4 -2.6 -0.05
  endloop
endfacet
facet normal 4.44089e-15 1 -0
  outer loop
    vertex 3 -2.6 -0.05
    vertex 2.9 -2.6 -8.85063e-19
    vertex 3 -2.6 0.05
  endloop
endfacet
facet normal -4.44089e-15 1 0
  outer loop
    vertex -1.8 -2.6 0.05
    vertex -1.7 -2.6 0
    vertex -1.8 -2.6 -0.05
  endloop
endfacet
facet normal 4.44089e-15 1 -0
  outer loop
    vertex -1.2 -2.6 -0.05
    vertex -1.3 -2.6 0
    vertex -1.2 -2.6 0.05
  endloop
endfacet
facet normal -4.44089e-15 1 0
  outer loop
    vertex -3.4 -2.6 0.05
    vertex -3.3 -2.6 -4.51563e-19
    vertex -3.4 -2.6 -0.05
  endloop
endfacet
facet normal -4.44089e-15 1 0
  outer loop
    vertex 0.4 -2.6 0.05
    vertex 0.5 -2.6 0
    vertex 0.4 -2.6 -0.05
  endloop
endfacet
facet normal -4.44089e-15 1 0
  outer loop
    vertex -2.8 -2.6 0.05
    vertex -2.7 -2.6 0
    vertex -2.8 -2.6 -0.05
  endloop
endfacet
facet normal 4.44089e-15 1 -0
  outer loop
    vertex -0.8 -2.6 -0.05
    vertex -0.9 -2.6 -4.51563e-19
    vertex -0.8 -2.6 0.05
  endloop
endfacet
facet normal -4.44089e-15 1 0
  outer loop
    vertex 0.6 -2.6 0.05
    vertex 0.7 -2.6 0
    vertex 0.6 -2.6 -0.05
  endloop
endfacet
facet normal -4.44089e-15 1 0
  outer loop
    vertex 0.8 -2.6 0.05
    vertex 0.9 -2.6 0
    vertex 0.8 -2.6 -0.05
  endloop
endfacet
facet normal 4.44089e-15 1 -0
  outer loop
    vertex 1 -2.6 -0.05
    vertex 0.9 -2.6 0
    vertex 1 -2.6 0.05
  endloop
endfacet
facet normal -4.44089e-15 1 0
  outer loop
    vertex 3.6 -2.6 0.05
    vertex 3.7 -2.6 0
    vertex 3.6 -2.6 -0.05
  endloop
endfacet
facet normal -4.44089e-15 1 0
  outer loop
    vertex 0.2 -2.6 0.05
    vertex 0.3 -2.6 0
    vertex 0.2 -2.6 -0.05
  endloop
endfacet
facet normal 4.44089e-15 1 -0
  outer loop
    vertex 1.4 -2.6 -0.05
    vertex 1.3 -2.6 0
    vertex 1.4 -2.6 0.05
  endloop
endfacet
facet normal 4.44089e-15 1 -0
  outer loop
    vertex -0.6 -2.6 -0.05
    vertex -0.7 -2.6 0
    vertex -0.6 -2.6 0.05
  endloop
endfacet
facet normal 4.44089e-15 1 -0
  outer loop
    vertex 0.4 -2.6 -0.05
    vertex 0.3 -2.6 0
    vertex 0.4 -2.6 0.05
  endloop
endfacet
facet normal -4.44089e-15 1 0
  outer loop
    vertex -0.2 -2.6 0.05
    vertex -0.1 -2.6 0
    vertex -0.2 -2.6 -0.05
  endloop
endfacet
facet normal -4.44089e-15 1 0
  outer loop
    vertex -2.22045e-15 -2.6 0.05
    vertex 0.1 -2.6 0
    vertex -2.22045e-15 -2.6 -0.05
  endloop
endfacet
facet normal -4.44089e-15 1 0
  outer loop
    vertex -0.6 -2.6 0.05
    vertex -0.5 -2.6 0
    vertex -0.6 -2.6 -0.05
  endloop
endfacet
facet normal -4.44089e-15 1 0
  outer loop
    vertex -0.4 -2.6 0.05
    vertex -0.3 -2.6 0
    vertex -0.4 -2.6 -0.05
  endloop
endfacet
facet normal -4.44089e-15 1 0
  outer loop
    vertex 1 -2.6 0.05
    vertex 1.1 -2.6 0
    vertex 1 -2.6 -0.05
  endloop
endfacet
facet normal 4.44089e-15 1 -0
  outer loop
    vertex 1.6 -2.6 -0.05
    vertex 1.5 -2.6 0
    vertex 1.6 -2.6 0.05
  endloop
endfacet
facet normal -4.44089e-15 1 0
  outer loop
    vertex 1.6 -2.6 0.05
    vertex 1.7 -2.6 0
    vertex 1.6 -2.6 -0.05
  endloop
endfacet
facet normal 4.44089e-15 1 -0
  outer loop
    vertex 2.2 -2.6 -0.05
    vertex 2.1 -2.6 0
    vertex 2.2 -2.6 0.05
  endloop
endfacet
facet normal 4.44089e-15 1 -0
  outer loop
    vertex -2.22045e-15 -2.6 -0.05
    vertex -0.1 -2.6 0
    vertex -2.22045e-15 -2.6 0.05
  endloop
endfacet
facet normal 4.44089e-15 1 -0
  outer loop
    vertex 0.6 -2.6 -0.05
    vertex 0.5 -2.6 0
    vertex 0.6 -2.6 0.05
  endloop
endfacet
facet normal 4.44089e-15 1 -0
  outer loop
    vertex 0.8 -2.6 -0.05
    vertex 0.7 -2.6 0
    vertex 0.8 -2.6 0.05
  endloop
endfacet
facet normal -4.44089e-15 1 0
  outer loop
    vertex -2 -2.6 0.05
    vertex -1.9 -2.6 0
    vertex -2 -2.6 -0.05
  endloop
endfacet
facet normal 4.44089e-15 1 -0
  outer loop
    vertex -0.4 -2.6 -0.05
    vertex -0.5 -2.6 0
    vertex -0.4 -2.6 0.05
  endloop
endfacet
facet normal 4.44089e-15 1 -0
  outer loop
    vertex -0.2 -2.6 -0.05
    vertex -0.3 -2.6 0
    vertex -0.2 -2.6 0.05
  endloop
endfacet
facet normal 4.44089e-15 1 -0
  outer loop
    vertex -1.8 -2.6 -0.05
    vertex -1.9 -2.6 0
    vertex -1.8 -2.6 0.05
  endloop
endfacet
facet normal 4.44089e-15 1 -0
  outer loop
    vertex -1.4 -2.6 -0.05
    vertex -1.5 -2.6 0
    vertex -1.4 -2.6 0.05
  endloop
endfacet
facet normal 4.44089e-15 1 -0
  outer loop
    vertex 0.2 -2.6 -0.05
    vertex 0.1 -2.6 0
    vertex 0.2 -2.6 0.05
  endloop
endfacet
facet normal 4.44089e-15 1 -0
  outer loop
    vertex -1.6 -2.6 -0.05
    vertex -1.7 -2.6 0
    vertex -1.6 -2.6 0.05
  endloop
endfacet
facet normal -4.44089e-15 1 0
  outer loop
    vertex -1.2 -2.6 0.05
    vertex -1.1 -2.6 0
    vertex -1.2 -2.6 -0.05
  endloop
endfacet
facet normal -4.44089e-15 1 0
  outer loop
    vertex -1 -2.6 0.05
    vertex -0.9 -2.6 -4.51563e-19
    vertex -1 -2.6 -0.05
  endloop
endfacet
facet normal -4.44089e-15 1 0
  outer loop
    vertex 1.8 -2.6 0.05
    vertex 1.9 -2.6 0
    vertex 1.8 -2.6 -0.05
  endloop
endfacet
facet normal 4.44089e-15 1 -0
  outer loop
    vertex 2 -2.6 -0.05
    vertex 1.9 -2.6 0
    vertex 2 -2.6 0.05
  endloop
endfacet
facet normal -4.44089e-15 1 0
  outer loop
    vertex -1.6 -2.6 0.05
    vertex -1.5 -2.6 0
    vertex -1.6 -2.6 -0.05
  endloop
endfacet
facet normal -4.44089e-15 1 0
  outer loop
    vertex -0.8 -2.6 0.05
    vertex -0.7 -2.6 0
    vertex -0.8 -2.6 -0.05
  endloop
endfacet
facet normal 4.44089e-15 1 -0
  outer loop
    vertex 3.8 -2.6 -0.05
    vertex 3.7 -2.6 0
    vertex 3.8 -2.6 0.05
  endloop
endfacet
facet normal -4.44089e-15 1 0
  outer loop
    vertex -3.6 -2.6 0.05
    vertex -3.5 -2.6 -8.85063e-19
    vertex -3.6 -2.6 -0.05
  endloop
endfacet
facet normal 4.44089e-15 1 -0
  outer loop
    vertex -3.2 -2.6 -0.05
    vertex -3.3 -2.6 -4.51563e-19
    vertex -3.2 -2.6 0.05
  endloop
endfacet
facet normal 4.44089e-15 1 -0
  outer loop
    vertex -2.6 -2.6 -0.05
    vertex -2.7 -2.6 0
    vertex -2.6 -2.6 0.05
  endloop
endfacet
facet normal -4.44089e-15 1 0
  outer loop
    vertex -2.2 -2.6 0.05
    vertex -2.1 -2.6 0
    vertex -2.2 -2.6 -0.05
  endloop
endfacet
facet normal 4.44089e-15 1 -0
  outer loop
    vertex -2 -2.6 -0.05
    vertex -2.1 -2.6 0
    vertex -2 -2.6 0.05
  endloop
endfacet
facet normal -4.44089e-15 1 0
  outer loop
    vertex 1.4 -2.6 0.05
    vertex 1.5 -2.6 0
    vertex 1.4 -2.6 -0.05
  endloop
endfacet
facet normal -4.44089e-15 1 0
  outer loop
    vertex 2 -2.6 0.05
    vertex 2.1 -2.6 0
    vertex 2 -2.6 -0.05
  endloop
endfacet
facet normal 4.44089e-15 1 -0
  outer loop
    vertex -2.8 -2.6 -0.05
    vertex -2.9 -2.6 -8.85063e-19
    vertex -2.8 -2.6 0.05
  endloop
endfacet
facet normal -4.44089e-15 1 0
  outer loop
    vertex -1.4 -2.6 0.05
    vertex -1.3 -2.6 0
    vertex -1.4 -2.6 -0.05
  endloop
endfacet
facet normal -4.44089e-15 1 0
  outer loop
    vertex 1.2 -2.6 0.05
    vertex 1.3 -2.6 0
    vertex 1.2 -2.6 -0.05
  endloop
endfacet
facet normal 4.44089e-15 1 -0
  outer loop
    vertex 1.2 -2.6 -0.05
    vertex 1.1 -2.6 0
    vertex 1.2 -2.6 0.05
  endloop
endfacet
facet normal 4.44089e-15 1 -0
  outer loop
    vertex -1 -2.6 -0.05
    vertex -1.1 -2.6 0
    vertex -1 -2.6 0.05
  endloop
endfacet
facet normal -4.44089e-15 1 0
  outer loop
    vertex -3.8 -2.6 0.05
    vertex -3.7 -2.6 0
    vertex -3.8 -2.6 -0.05
  endloop
endfacet
facet normal 4.44089e-15 1 -0
  outer loop
    vertex -2.2 -2.6 -0.05
    vertex -2.3 -2.6 -1.23909e-18
    vertex -2.2 -2.6 0.05
  endloop
endfacet
facet normal 4.44089e-15 1 -0
  outer loop
    vertex 2.6 -2.6 -0.05
    vertex 2.5 -2.6 0
    vertex 2.6 -2.6 0.05
  endloop
endfacet
facet normal -4.44089e-15 1 0
  outer loop
    vertex 2.8 -2.6 0.05
    vertex 2.9 -2.6 -8.85063e-19
    vertex 2.8 -2.6 -0.05
  endloop
endfacet
facet normal 4.44089e-15 1 -0
  outer loop
    vertex -3 -2.6 -0.05
    vertex -3.1 -2.6 -1.23909e-18
    vertex -3 -2.6 0.05
  endloop
endfacet
facet normal -4.44089e-15 1 0
  outer loop
    vertex 2.2 -2.6 0.05
    vertex 2.3 -2.6 -1.23909e-18
    vertex 2.2 -2.6 -0.05
  endloop
endfacet
facet normal 4.44089e-15 1 -0
  outer loop
    vertex 2.8 -2.6 -0.05
    vertex 2.7 -2.6 0
    vertex 2.8 -2.6 0.05
  endloop
endfacet
facet normal 4.44089e-15 1 -0
  outer loop
    vertex 1.8 -2.6 -0.05
    vertex 1.7 -2.6 0
    vertex 1.8 -2.6 0.05
  endloop
endfacet
facet normal -4.44089e-15 1 0
  outer loop
    vertex -2.6 -2.6 0.05
    vertex -2.5 -2.6 0
    vertex -2.6 -2.6 -0.05
  endloop
endfacet
facet normal 4.44089e-15 1 -0
  outer loop
    vertex 3.2 -2.6 -0.05
    vertex 3.1 -2.6 0
    vertex 3.2 -2.6 0.05
  endloop
endfacet
facet normal -4.44089e-15 1 0
  outer loop
    vertex 3.2 -2.6 0.05
    vertex 3.3 -2.6 0
    vertex 3.2 -2.6 -0.05
  endloop
endfacet
facet normal 4.44089e-15 1 -0
  outer loop
    vertex 3.6 -2.6 -0.05
    vertex 3.5 -2.6 0
    vertex 3.6 -2.6 0.05
  endloop
endfacet
facet normal 0 1 -8.88178e-15
  outer loop
    vertex 3.6 -2.6 -0.05
    vertex 3.7 -2.6 0
    vertex 3.8 -2.6 -0.05
  endloop
endfacet
facet normal 0 1 8.88178e-15
  outer loop
    vertex 3.8 -2.6 0.05
    vertex 3.7 -2.6 0
    vertex 3.6 -2.6 0.05
  endloop
endfacet
facet normal 0 1 8.88178e-15
  outer loop
    vertex -3.6 -2.6 0.05
    vertex -3.7 -2.6 0
    vertex -3.8 -2.6 0.05
  endloop
endfacet
facet normal 0 1 -8.88178e-15
  outer loop
    vertex -3.8 -2.6 -0.05
    vertex -3.7 -2.6 0
    vertex -3.6 -2.6 -0.05
  endloop
endfacet
facet normal 0 1 -8.88178e-15
  outer loop
    vertex -3.6 -2.6 -0.05
    vertex -3.5 -2.6 -8.85063e-19
    vertex -3.4 -2.6 -0.05
  endloop
endfacet
facet normal 0 1 -8.88178e-15
  outer loop
    vertex -3.4 -2.6 -0.05
    vertex -3.3 -2.6 -4.51563e-19
    vertex -3.2 -2.6 -0.05
  endloop
endfacet
facet normal 0 1 -8.88178e-15
  outer loop
    vertex -3.2 -2.6 -0.05
    vertex -3.1 -2.6 -1.23909e-18
    vertex -3 -2.6 -0.05
  endloop
endfacet
facet normal 0 1 -8.88178e-15
  outer loop
    vertex -3 -2.6 -0.05
    vertex -2.9 -2.6 -8.85063e-19
    vertex -2.8 -2.6 -0.05
  endloop
endfacet
facet normal 0 1 -8.88178e-15
  outer loop
    vertex -2.8 -2.6 -0.05
    vertex -2.7 -2.6 0
    vertex -2.6 -2.6 -0.05
  endloop
endfacet
facet normal 0 1 -8.88178e-15
  outer loop
    vertex -2.6 -2.6 -0.05
    vertex -2.5 -2.6 0
    vertex -2.4 -2.6 -0.05
  endloop
endfacet
facet normal 0 1 -8.88178e-15
  outer loop
    vertex -2.4 -2.6 -0.05
    vertex -2.3 -2.6 -1.23909e-18
    vertex -2.2 -2.6 -0.05
  endloop
endfacet
facet normal 0 1 -8.88178e-15
  outer loop
    vertex -2.2 -2.6 -0.05
    vertex -2.1 -2.6 0
    vertex -2 -2.6 -0.05
  endloop
endfacet
facet normal 0 1 -8.88178e-15
  outer loop
    vertex -2 -2.6 -0.05
    vertex -1.9 -2.6 0
    vertex -1.8 -2.6 -0.05
  endloop
endfacet
facet normal 0 1 -8.88178e-15
  outer loop
    vertex -1.8 -2.6 -0.05
    vertex -1.7 -2.6 0
    vertex -1.6 -2.6 -0.05
  endloop
endfacet
facet normal 0 1 -8.88178e-15
  outer loop
    vertex -1.6 -2.6 -0.05
    vertex -1.5 -2.6 0
    vertex -1.4 -2.6 -0.05
  endloop
endfacet
facet normal 0 1 -8.88178e-15
  outer loop
    vertex -1.4 -2.6 -0.05
    vertex -1.3 -2.6 0
    vertex -1.2 -2.6 -0.05
  endloop
endfacet
facet normal 0 1 -8.88178e-15
  outer loop
    vertex -1.2 -2.6 -0.05
    vertex -1.1 -2.6 0
    vertex -1 -2.6 -0.05
  endloop
endfacet
facet normal 0 1 -8.88178e-15
  outer loop
    vertex -1 -2.6 -0.05
    vertex -0.9 -2.6 -4.51563e-19
    vertex -0.8 -2.6 -0.05
  endloop
endfacet
facet normal 0 1 -8.88178e-15
  outer loop
    vertex -0.8 -2.6 -0.05
    vertex -0.7 -2.6 0
    vertex -0.6 -2.6 -0.05
  endloop
endfacet
facet normal 0 1 -8.88178e-15
  outer loop
    vertex -0.6 -2.6 -0.05
    vertex -0.5 -2.6 0
    vertex -0.4 -2.6 -0.05
  endloop
endfacet
facet normal 0 1 -8.88178e-15
  outer loop
    vertex -0.4 -2.6 -0.05
    vertex -0.3 -2.6 0
    vertex -0.2 -2.6 -0.05
  endloop
endfacet
facet normal 0 1 -8.88178e-15
  outer loop
    vertex -0.2 -2.6 -0.05
    vertex -0.1 -2.6 0
    vertex -2.22045e-15 -2.6 -0.05
  endloop
endfacet
facet normal 0 1 -8.88178e-15
  outer loop
    vertex -2.22045e-15 -2.6 -0.05
    vertex 0.1 -2.6 0
    vertex 0.2 -2.6 -0.05
  endloop
endfacet
facet normal 0 1 -8.88178e-15
  outer loop
    vertex 0.2 -2.6 -0.05
    vertex 0.3 -2.6 0
    vertex 0.4 -2.6 -0.05
  endloop
endfacet
facet normal 0 1 -8.88178e-15
  outer loop
    vertex 0.4 -2.6 -0.05
    vertex 0.5 -2.6 0
    vertex 0.6 -2.6 -0.05
  endloop
endfacet
facet normal 0 1 -8.88178e-15
  outer loop
    vertex 0.6 -2.6 -0.05
    vertex 0.7 -2.6 0
    vertex 0.8 -2.6 -0.05
  endloop
endfacet
facet normal 0 1 -8.88178e-15
  outer loop
    vertex 0.8 -2.6 -0.05
    vertex 0.9 -2.6 0
    vertex 1 -2.6 -0.05
  endloop
endfacet
facet normal 0 1 -8.88178e-15
  outer loop
    vertex 1 -2.6 -0.05
    vertex 1.1 -2.6 0
    vertex 1.2 -2.6 -0.05
  endloop
endfacet
facet normal 0 1 -8.88178e-15
  outer loop
    vertex 1.2 -2.6 -0.05
    vertex 1.3 -2.6 0
    vertex 1.4 -2.6 -0.05
  endloop
endfacet
facet normal 0 1 -8.88178e-15
  outer loop
    vertex 1.4 -2.6 -0.05
    vertex 1.5 -2.6 0
    vertex 1.6 -2.6 -0.05
  endloop
endfacet
facet normal 0 1 -8.88178e-15
  outer loop
    vertex 1.6 -2.6 -0.05
    vertex 1.7 -2.6 0
    vertex 1.8 -2.6 -0.05
  endloop
endfacet
facet normal 0 1 -8.88178e-15
  outer loop
    vertex 1.8 -2.6 -0.05
    vertex 1.9 -2.6 0
    vertex 2 -2.6 -0.05
  endloop
endfacet
facet normal 0 1 -8.88178e-15
  outer loop
    vertex 2 -2.6 -0.05
    vertex 2.1 -2.6 0
    vertex 2.2 -2.6 -0.05
  endloop
endfacet
facet normal 0 1 -8.88178e-15
  outer loop
    vertex 2.2 -2.6 -0.05
    vertex 2.3 -2.6 -1.23909e-18
    vertex 2.4 -2.6 -0.05
  endloop
endfacet
facet normal 0 1 -8.88178e-15
  outer loop
    vertex 2.4 -2.6 -0.05
    vertex 2.5 -2.6 0
    vertex 2.6 -2.6 -0.05
  endloop
endfacet
facet normal 0 1 -8.88178e-15
  outer loop
    vertex 2.6 -2.6 -0.05
    vertex 2.7 -2.6 0
    vertex 2.8 -2.6 -0.05
  endloop
endfacet
facet normal 0 1 -8.88178e-15
  outer loop
    vertex 2.8 -2.6 -0.05
    vertex 2.9 -2.6 -8.85063e-19
    vertex 3 -2.6 -0.05
  endloop
endfacet
facet normal 0 1 -8.88178e-15
  outer loop
    vertex 3 -2.6 -0.05
    vertex 3.1 -2.6 0
    vertex 3.2 -2.6 -0.05
  endloop
endfacet
facet normal 0 1 -8.88178e-15
  outer loop
    vertex 3.2 -2.6 -0.05
    vertex 3.3 -2.6 0
    vertex 3.4 -2.6 -0.05
  endloop
endfacet
facet normal 0 1 -8.88178e-15
  outer loop
    vertex 3.4 -2.6 -0.05
    vertex 3.5 -2.6 0
    vertex 3.6 -2.6 -0.05
  endloop
endfacet
facet normal 0 1 8.88178e-15
  outer loop
    vertex -3.4 -2.6 0.05
    vertex -3.5 -2.6 -8.85063e-19
    vertex -3.6 -2.6 0.05
  endloop
endfacet
facet normal 0 1 8.88178e-15
  outer loop
    vertex -3.2 -2.6 0.05
    vertex -3.3 -2.6 -4.51563e-19
    vertex -3.4 -2.6 0.05
  endloop
endfacet
facet normal 0 1 8.88178e-15
  outer loop
    vertex -3 -2.6 0.05
    vertex -3.1 -2.6 -1.23909e-18
    vertex -3.2 -2.6 0.05
  endloop
endfacet
facet normal 0 1 8.88178e-15
  outer loop
    vertex -2.8 -2.6 0.05
    vertex -2.9 -2.6 -8.85063e-19
    vertex -3 -2.6 0.05
  endloop
endfacet
facet normal 0 1 8.88178e-15
  outer loop
    vertex -2.6 -2.6 0.05
    vertex -2.7 -2.6 0
    vertex -2.8 -2.6 0.05
  endloop
endfacet
facet normal 0 1 8.88178e-15
  outer loop
    vertex -2.4 -2.6 0.05
    vertex -2.5 -2.6 0
    vertex -2.6 -2.6 0.05
  endloop
endfacet
facet normal 0 1 8.88178e-15
  outer loop
    vertex -2.2 -2.6 0.05
    vertex -2.3 -2.6 -1.23909e-18
    vertex -2.4 -2.6 0.05
  endloop
endfacet
facet normal 0 1 8.88178e-15
  outer loop
    vertex -2 -2.6 0.05
    vertex -2.1 -2.6 0
    vertex -2.2 -2.6 0.05
  endloop
endfacet
facet normal 0 1 8.88178e-15
  outer loop
    vertex -1.8 -2.6 0.05
    vertex -1.9 -2.6 0
    vertex -2 -2.6 0.05
  endloop
endfacet
facet normal 0 1 8.88178e-15
  outer loop
    vertex -1.6 -2.6 0.05
    vertex -1.7 -2.6 0
    vertex -1.8 -2.6 0.05
  endloop
endfacet
facet normal 0 1 8.88178e-15
  outer loop
    vertex -1.4 -2.6 0.05
    vertex -1.5 -2.6 0
    vertex -1.6 -2.6 0.05
  endloop
endfacet
facet normal 0 1 8.88178e-15
  outer loop
    vertex -1.2 -2.6 0.05
    vertex -1.3 -2.6 0
    vertex -1.4 -2.6 0.05
  endloop
endfacet
facet normal 0 1 8.88178e-15
  outer loop
    vertex -1 -2.6 0.05
    vertex -1.1 -2.6 0
    vertex -1.2 -2.6 0.05
  endloop
endfacet
facet normal 0 1 8.88178e-15
  outer loop
    vertex -0.8 -2.6 0.05
    vertex -0.9 -2.6 -4.51563e-19
    vertex -1 -2.6 0.05
  endloop
endfacet
facet normal 0 1 8.88178e-15
  outer loop
    vertex -0.6 -2.6 0.05
    vertex -0.7 -2.6 0
    vertex -0.8 -2.6 0.05
  endloop
endfacet
facet normal 0 1 8.88178e-15
  outer loop
    vertex -0.4 -2.6 0.05
    vertex -0.5 -2.6 0
    vertex -0.6 -2.6 0.05
  endloop
endfacet
facet normal 0 1 8.88178e-15
  outer loop
    vertex -0.2 -2.6 0.05
    vertex -0.3 -2.6 0
    vertex -0.4 -2.6 0.05
  endloop
endfacet
facet normal 0 1 8.88178e-15
  outer loop
    vertex -2.22045e-15 -2.6 0.05
    vertex -0.1 -2.6 0
    vertex -0.2 -2.6 0.05
  endloop
endfacet
facet normal 0 1 8.88178e-15
  outer loop
    vertex 0.2 -2.6 0.05
    vertex 0.1 -2.6 0
    vertex -2.22045e-15 -2.6 0.05
  endloop
endfacet
facet normal 0 1 8.88178e-15
  outer loop
    vertex 0.4 -2.6 0.05
    vertex 0.3 -2.6 0
    vertex 0.2 -2.6 0.05
  endloop
endfacet
facet normal 0 1 8.88178e-15
  outer loop
    vertex 0.6 -2.6 0.05
    vertex 0.5 -2.6 0
    vertex 0.4 -2.6 0.05
  endloop
endfacet
facet normal 0 1 8.88178e-15
  outer loop
    vertex 0.8 -2.6 0.05
    vertex 0.7 -2.6 0
    vertex 0.6 -2.6 0.05
  endloop
endfacet
facet normal 0 1 8.88178e-15
  outer loop
    vertex 1 -2.6 0.05
    vertex 0.9 -2.6 0
    vertex 0.8 -2.6 0.05
  endloop
endfacet
facet normal 0 1 8.88178e-15
  outer loop
    vertex 1.2 -2.6 0.05
    vertex 1.1 -2.6 0
    vertex 1 -2.6 0.05
  endloop
endfacet
facet normal 0 1 8.88178e-15
  outer loop
    vertex 1.4 -2.6 0.05
    vertex 1.3 -2.6 0
    vertex 1.2 -2.6 0.05
  endloop
endfacet
facet normal 0 1 8.88178e-15
  outer loop
    vertex 1.6 -2.6 0.05
    vertex 1.5 -2.6 0
    vertex 1.4 -2.6 0.05
  endloop
endfacet
facet normal 0 1 8.88178e-15
  outer loop
    vertex 1.8 -2.6 0.05
    vertex 1.7 -2.6 0
    vertex 1.6 -2.6 0.05
  endloop
endfacet
facet normal 0 1 8.88178e-15
  outer loop
    vertex 2 -2.6 0.05
    vertex 1.9 -2.6 0
    vertex 1.8 -2.6 0.05
  endloop
endfacet
facet normal 0 1 8.88178e-15
  outer loop
    vertex 2.2 -2.6 0.05
    vertex 2.1 -2.6 0
    vertex 2 -2.6 0.05
  endloop
endfacet
facet normal 0 1 8.88178e-15
  outer loop
    vertex 2.4 -2.6 0.05
    vertex 2.3 -2.6 -1.23909e-18
    vertex 2.2 -2.6 0.05
  endloop
endfacet
facet normal 0 1 8.88178e-15
  outer loop
    vertex 2.6 -2.6 0.05
    vertex 2.5 -2.6 0
    vertex 2.4 -2.6 0.05
  endloop
endfacet
facet normal 0 1 8.88178e-15
  outer loop
    vertex 2.8 -2.6 0.05
    vertex 2.7 -2.6 0
    vertex 2.6 -2.6 0.05
  endloop
endfacet
facet normal 0 1 8.88178e-15
  outer loop
    vertex 3 -2.6 0.05
    vertex 2.9 -2.6 -8.85063e-19
    vertex 2.8 -2.6 0.05
  endloop
endfacet
facet normal 0 1 8.88178e-15
  outer loop
    vertex 3.2 -2.6 0.05
    vertex 3.1 -2.6 0
    vertex 3 -2.6 0.05
  endloop
endfacet
facet normal 0 1 8.88178e-15
  outer loop
    vertex 3.4 -2.6 0.05
    vertex 3.3 -2.6 0
    vertex 3.2 -2.6 0.05
  endloop
endfacet
facet normal 0 1 8.88178e-15
  outer loop
    vertex 3.6 -2.6 0.05
    vertex 3.5 -2.6 0
    vertex 3.4 -2.6 0.05
  endloop
endfacet
endsolid Created by Gmsh
