solid Created by Gmsh
facet normal 0 -1 -0
  outer loop
    vertex 1.3 3 0.075
    vertex 0.866667 3 -0.075
    vertex 1.3 3 -0.075
  endloop
endfacet
facet normal 0 -1 0
  outer loop
    vertex 0.866667 3 0.075
    vertex 0.866667 3 -0.075
    vertex 1.3 3 0.075
  endloop
endfacet
facet normal 0 -1 0
  outer loop
    vertex -1.3 3 0.075
    vertex -1.3 3 -0.075
    vertex -0.866667 3 -0.075
  endloop
endfacet
facet normal -0 -1 -0
  outer loop
    vertex -0.866667 3 0.075
    vertex -1.3 3 0.075
    vertex -0.866667 3 -0.075
  endloop
endfacet
facet normal 0 -1 -0
  outer loop
    vertex -0.433333 3 0.075
    vertex -0.866667 3 -0.075
    vertex -0.433333 3 -0.075
  endloop
endfacet
facet normal 0 -1 0
  outer loop
    vertex -0.866667 3 0.075
    vertex -0.866667 3 -0.075
    vertex -0.433333 3 0.075
  endloop
endfacet
facet normal 0 -1 0
  outer loop
    vertex -0.433333 3 0.075
    vertex -0.433333 3 -0.075
    vertex 0 3 -0.075
  endloop
endfacet
facet normal 0 -1 -0
  outer loop
    vertex 0.433333 3 0.075
    vertex 0 3 -0.075
    vertex 0.433333 3 -0.075
  endloop
endfacet
facet normal -0 -1 0
  outer loop
    vertex 0.433333 3 0.075
    vertex 0 3 0.075
    vertex 0 3 -0.075
  endloop
endfacet
facet normal -0 -1 -0
  outer loop
    vertex 0 3 0.075
    vertex -0.433333 3 0.075
    vertex 0 3 -0.075
  endloop
endfacet
facet normal 0 -1 -0
  outer loop
    vertex 0.866667 3 0.075
    vertex 0.433333 3 -0.075
    vertex 0.866667 3 -0.075
  endloop
endfacet
facet normal 0 -1 0
  outer loop
    vertex 0.433333 3 0.075
    vertex 0.433333 3 -0.075
    vertex 0.866667 3 0.075
  endloop
endfacet
endsolid Created by Gmsh
