solid Created by Gmsh
facet normal 0 -1 0
  outer loop
    vertex 0.986207 3 -0.05
    vertex 0.963793 3 0.00357462
    vertex 0.941379 3 -0.05
  endloop
endfacet
facet normal 0 -1 0
  outer loop
    vertex -0.986207 3 0.05
    vertex -0.963793 3 -0.00357462
    vertex -0.941379 3 0.05
  endloop
endfacet
facet normal 0 -1 0
  outer loop
    vertex -1.03103 3 -0.05
    vertex -1.05299 3 -0.000338178
    vertex -1.07586 3 -0.05
  endloop
endfacet
facet normal 0 -1 0
  outer loop
    vertex 0.896552 3 -0.05
    vertex 0.874138 3 0.00357462
    vertex 0.851724 3 -0.05
  endloop
endfacet
facet normal 0 -1 0
  outer loop
    vertex -0.896552 3 0.05
    vertex -0.874138 3 -0.00357462
    vertex -0.851724 3 0.05
  endloop
endfacet
facet normal 0 -1 0
  outer loop
    vertex 1.03103 3 0.05
    vertex 1.05345 3 0.00357462
    vertex 1.07586 3 0.05
  endloop
endfacet
facet normal 0 -1 0
  outer loop
    vertex -0.627586 3 -0.05
    vertex -0.649539 3 -0.000338178
    vertex -0.672414 3 -0.05
  endloop
endfacet
facet normal 0 -1 0
  outer loop
    vertex -0.134483 3 -0.05
    vertex -0.156897 3 0.00289826
    vertex -0.17931 3 -0.05
  endloop
endfacet
facet normal 0 -1 0
  outer loop
    vertex -0.537931 3 -0.05
    vertex -0.560345 3 2.33754e-16
    vertex -0.582759 3 -0.05
  endloop
endfacet
facet normal 0 -1 0
  outer loop
    vertex 0.762069 3 0.05
    vertex 0.784483 3 0.00357462
    vertex 0.806897 3 0.05
  endloop
endfacet
facet normal 0 -1 0
  outer loop
    vertex 0.672414 3 0.05
    vertex 0.694828 3 0.00357462
    vertex 0.717241 3 0.05
  endloop
endfacet
facet normal 0 -1 0
  outer loop
    vertex 0.806897 3 -0.05
    vertex 0.784483 3 0.00357462
    vertex 0.762069 3 -0.05
  endloop
endfacet
facet normal 0 -1 0
  outer loop
    vertex -0.358621 3 -0.05
    vertex -0.381034 3 0.00357462
    vertex -0.403448 3 -0.05
  endloop
endfacet
facet normal 0 -1 0
  outer loop
    vertex -0.448276 3 -0.05
    vertex -0.47069 3 0.00357462
    vertex -0.493103 3 -0.05
  endloop
endfacet
facet normal 0 -1 0
  outer loop
    vertex 0.627586 3 -0.05
    vertex 0.605172 3 0.00357462
    vertex 0.582759 3 -0.05
  endloop
endfacet
facet normal 0 -1 0
  outer loop
    vertex 0.537931 3 -0.05
    vertex 0.515517 3 0.00357462
    vertex 0.493103 3 -0.05
  endloop
endfacet
facet normal 0 -1 0
  outer loop
    vertex 0.403448 3 0.05
    vertex 0.425862 3 -7.5766e-17
    vertex 0.448276 3 0.05
  endloop
endfacet
facet normal 0 -1 0
  outer loop
    vertex 0.313793 3 0.05
    vertex 0.336207 3 -0.00357462
    vertex 0.358621 3 0.05
  endloop
endfacet
facet normal 0 -1 0
  outer loop
    vertex 0.358621 3 -0.05
    vertex 0.336207 3 -0.00357462
    vertex 0.313793 3 -0.05
  endloop
endfacet
facet normal 0 -1 0
  outer loop
    vertex 0.448276 3 -0.05
    vertex 0.425862 3 -7.5766e-17
    vertex 0.403448 3 -0.05
  endloop
endfacet
facet normal 0 -1 0
  outer loop
    vertex 0.717241 3 -0.05
    vertex 0.694828 3 0.00357462
    vertex 0.672414 3 -0.05
  endloop
endfacet
facet normal 0 -1 0
  outer loop
    vertex 0.582759 3 0.05
    vertex 0.605172 3 0.00357462
    vertex 0.627586 3 0.05
  endloop
endfacet
facet normal 0 -1 0
  outer loop
    vertex -0.672414 3 0.05
    vertex -0.649539 3 -0.000338178
    vertex -0.627586 3 0.05
  endloop
endfacet
facet normal 0 -1 0
  outer loop
    vertex -0.403448 3 0.05
    vertex -0.381034 3 0.00357462
    vertex -0.358621 3 0.05
  endloop
endfacet
facet normal 0 -1 0
  outer loop
    vertex -0.851724 3 -0.05
    vertex -0.874138 3 -0.00357462
    vertex -0.896552 3 -0.05
  endloop
endfacet
facet normal 0 -1 0
  outer loop
    vertex 0.851724 3 0.05
    vertex 0.874138 3 0.00357462
    vertex 0.896552 3 0.05
  endloop
endfacet
facet normal 0 -1 0
  outer loop
    vertex 0.493103 3 0.05
    vertex 0.515517 3 0.00357462
    vertex 0.537931 3 0.05
  endloop
endfacet
facet normal 0 -1 0
  outer loop
    vertex -0.493103 3 0.05
    vertex -0.47069 3 0.00357462
    vertex -0.448276 3 0.05
  endloop
endfacet
facet normal 0 -1 0
  outer loop
    vertex 0.941379 3 0.05
    vertex 0.963793 3 0.00357462
    vertex 0.986207 3 0.05
  endloop
endfacet
facet normal 0 -1 0
  outer loop
    vertex -0.941379 3 -0.05
    vertex -0.963793 3 -0.00357462
    vertex -0.986207 3 -0.05
  endloop
endfacet
facet normal 0 -1 0
  outer loop
    vertex -0.17931 3 0.05
    vertex -0.156897 3 0.00289826
    vertex -0.134483 3 0.05
  endloop
endfacet
facet normal 0 -1 0
  outer loop
    vertex 1.07586 3 -0.05
    vertex 1.05345 3 0.00357462
    vertex 1.03103 3 -0.05
  endloop
endfacet
facet normal 0 -1 0
  outer loop
    vertex -1.07586 3 0.05
    vertex -1.05299 3 -0.000338178
    vertex -1.03103 3 0.05
  endloop
endfacet
facet normal 0 -1 0
  outer loop
    vertex -0.582759 3 0.05
    vertex -0.560345 3 2.33754e-16
    vertex -0.537931 3 0.05
  endloop
endfacet
facet normal 0 -1 0
  outer loop
    vertex -0.794277 3 -0.0017022
    vertex -0.758378 3 0.0183214
    vertex -0.806897 3 0.05
  endloop
endfacet
facet normal 0 -1 0
  outer loop
    vertex 1.13331 3 0.0017022
    vertex 1.16921 3 0.0183214
    vertex 1.12069 3 0.05
  endloop
endfacet
facet normal 0 -1 0
  outer loop
    vertex 1.12069 3 -0.05
    vertex 1.16921 3 -0.0183214
    vertex 1.13331 3 0.0017022
  endloop
endfacet
facet normal 0 -1 0
  outer loop
    vertex -0.806897 3 -0.05
    vertex -0.758378 3 -0.0183214
    vertex -0.794277 3 -0.0017022
  endloop
endfacet
facet normal 0 -1 0
  outer loop
    vertex 0.134483 3 0.05
    vertex 0.0859637 3 0.0183214
    vertex 0.121424 3 -0.00138013
  endloop
endfacet
facet normal 0 -1 0
  outer loop
    vertex 6.66134e-16 3 0.05
    vertex -0.048519 3 0.0183214
    vertex -0.0130589 3 0.00138013
  endloop
endfacet
facet normal 0 -1 0
  outer loop
    vertex 0.268966 3 0.05
    vertex 0.220447 3 0.0183214
    vertex 0.256346 3 -0.0017022
  endloop
endfacet
facet normal 0 -1 0
  outer loop
    vertex -0.313793 3 -0.05
    vertex -0.265274 3 -0.0183214
    vertex -0.301174 3 0.0017022
  endloop
endfacet
facet normal 0 -1 0
  outer loop
    vertex -1.19164 3 -0.00018822
    vertex -1.16183 3 0.0183214
    vertex -1.21034 3 0.05
  endloop
endfacet
facet normal 0 -1 -0
  outer loop
    vertex 0.256346 3 -0.0017022
    vertex 0.220447 3 -0.0183214
    vertex 0.268966 3 -0.05
  endloop
endfacet
facet normal 0 -1 0
  outer loop
    vertex -0.301174 3 0.0017022
    vertex -0.265274 3 0.0183214
    vertex -0.313793 3 0.05
  endloop
endfacet
facet normal 0 -1 0
  outer loop
    vertex -1.21034 3 -0.05
    vertex -1.16183 3 -0.0183214
    vertex -1.19164 3 -0.00018822
  endloop
endfacet
facet normal 0 -1 -0
  outer loop
    vertex 0.121424 3 -0.00138013
    vertex 0.0859637 3 -0.0183214
    vertex 0.134483 3 -0.05
  endloop
endfacet
facet normal 0 -1 -0
  outer loop
    vertex -0.0130589 3 0.00138013
    vertex -0.048519 3 -0.0183214
    vertex -6.66134e-16 3 -0.05
  endloop
endfacet
facet normal 0 -1 0
  outer loop
    vertex -0.806897 3 0.05
    vertex -0.758378 3 0.0183214
    vertex -0.762069 3 0.05
  endloop
endfacet
facet normal 0 -1 0
  outer loop
    vertex 1.12069 3 0.05
    vertex 1.16921 3 0.0183214
    vertex 1.16552 3 0.05
  endloop
endfacet
facet normal 0 -1 0
  outer loop
    vertex 1.16552 3 -0.05
    vertex 1.16921 3 -0.0183214
    vertex 1.12069 3 -0.05
  endloop
endfacet
facet normal 0 -1 -0
  outer loop
    vertex 0.0896552 3 0.05
    vertex 0.0859637 3 0.0183214
    vertex 0.134483 3 0.05
  endloop
endfacet
facet normal 0 -1 -0
  outer loop
    vertex 0.224138 3 0.05
    vertex 0.220447 3 0.0183214
    vertex 0.268966 3 0.05
  endloop
endfacet
facet normal 0 -1 0
  outer loop
    vertex -0.762069 3 -0.05
    vertex -0.758378 3 -0.0183214
    vertex -0.806897 3 -0.05
  endloop
endfacet
facet normal 0 -1 0
  outer loop
    vertex -0.268966 3 -0.05
    vertex -0.265274 3 -0.0183214
    vertex -0.313793 3 -0.05
  endloop
endfacet
facet normal 0 -1 -0
  outer loop
    vertex -0.0448276 3 0.05
    vertex -0.048519 3 0.0183214
    vertex 6.66134e-16 3 0.05
  endloop
endfacet
facet normal 0 -1 0
  outer loop
    vertex -1.21034 3 0.05
    vertex -1.16183 3 0.0183214
    vertex -1.16552 3 0.05
  endloop
endfacet
facet normal 0 -1 0
  outer loop
    vertex -0.313793 3 0.05
    vertex -0.265274 3 0.0183214
    vertex -0.268966 3 0.05
  endloop
endfacet
facet normal 0 -1 0
  outer loop
    vertex 0.268966 3 -0.05
    vertex 0.220447 3 -0.0183214
    vertex 0.224138 3 -0.05
  endloop
endfacet
facet normal 0 -1 0
  outer loop
    vertex -1.16552 3 -0.05
    vertex -1.16183 3 -0.0183214
    vertex -1.21034 3 -0.05
  endloop
endfacet
facet normal 0 -1 0
  outer loop
    vertex 0.134483 3 -0.05
    vertex 0.0859637 3 -0.0183214
    vertex 0.0896552 3 -0.05
  endloop
endfacet
facet normal 0 -1 0
  outer loop
    vertex -6.66134e-16 3 -0.05
    vertex -0.048519 3 -0.0183214
    vertex -0.0448276 3 -0.05
  endloop
endfacet
facet normal 0 -1 0
  outer loop
    vertex -0.874138 3 -0.00357462
    vertex -0.83071 3 0.0129076
    vertex -0.851724 3 0.05
  endloop
endfacet
facet normal 0 -1 -0
  outer loop
    vertex -0.806897 3 0.05
    vertex -0.83071 3 0.0129076
    vertex -0.794277 3 -0.0017022
  endloop
endfacet
facet normal 0 -1 0
  outer loop
    vertex 0.896552 3 -0.05
    vertex 0.918966 3 -0.0137247
    vertex 0.874138 3 0.00357462
  endloop
endfacet
facet normal 0 -1 0
  outer loop
    vertex 0.963793 3 0.00357462
    vertex 0.918966 3 -0.0137247
    vertex 0.941379 3 -0.05
  endloop
endfacet
facet normal 0 -1 0
  outer loop
    vertex 0.874138 3 0.00357462
    vertex 0.82931 3 -0.0137247
    vertex 0.851724 3 -0.05
  endloop
endfacet
facet normal 0 -1 0
  outer loop
    vertex -0.963793 3 -0.00357462
    vertex -0.918966 3 0.0137247
    vertex -0.941379 3 0.05
  endloop
endfacet
facet normal 0 -1 0
  outer loop
    vertex 0.717241 3 -0.05
    vertex 0.739655 3 -0.0137247
    vertex 0.694828 3 0.00357462
  endloop
endfacet
facet normal 0 -1 -0
  outer loop
    vertex -0.896552 3 0.05
    vertex -0.918966 3 0.0137247
    vertex -0.874138 3 -0.00357462
  endloop
endfacet
facet normal 0 -1 0
  outer loop
    vertex -0.537931 3 -0.05
    vertex -0.515517 3 -0.0144396
    vertex -0.560345 3 2.33754e-16
  endloop
endfacet
facet normal 0 -1 0
  outer loop
    vertex -0.47069 3 0.00357462
    vertex -0.515517 3 -0.0144396
    vertex -0.493103 3 -0.05
  endloop
endfacet
facet normal 0 -1 0
  outer loop
    vertex 1.13331 3 0.0017022
    vertex 1.09688 3 -0.0129076
    vertex 1.12069 3 -0.05
  endloop
endfacet
facet normal 0 -1 0
  outer loop
    vertex 0.605172 3 0.00357462
    vertex 0.560345 3 -0.0137247
    vertex 0.582759 3 -0.05
  endloop
endfacet
facet normal 0 -1 -0
  outer loop
    vertex -0.986207 3 0.05
    vertex -1.00853 3 0.014372
    vertex -0.963793 3 -0.00357462
  endloop
endfacet
facet normal 0 -1 0
  outer loop
    vertex 0.784483 3 0.00357462
    vertex 0.739655 3 -0.0137247
    vertex 0.762069 3 -0.05
  endloop
endfacet
facet normal 0 -1 -0
  outer loop
    vertex 0.403448 3 0.05
    vertex 0.381034 3 0.0144396
    vertex 0.425862 3 -7.5766e-17
  endloop
endfacet
facet normal 0 -1 0
  outer loop
    vertex -0.448276 3 -0.05
    vertex -0.425862 3 -0.0137247
    vertex -0.47069 3 0.00357462
  endloop
endfacet
facet normal 0 -1 0
  outer loop
    vertex 0.336207 3 -0.00357462
    vertex 0.381034 3 0.0144396
    vertex 0.358621 3 0.05
  endloop
endfacet
facet normal 0 -1 0
  outer loop
    vertex -0.301174 3 0.0017022
    vertex -0.337606 3 -0.0129076
    vertex -0.313793 3 -0.05
  endloop
endfacet
facet normal 0 -1 0
  outer loop
    vertex 0.537931 3 -0.05
    vertex 0.560345 3 -0.0137247
    vertex 0.515517 3 0.00357462
  endloop
endfacet
facet normal 0 -1 0
  outer loop
    vertex 0.256346 3 -0.0017022
    vertex 0.292778 3 0.0129076
    vertex 0.268966 3 0.05
  endloop
endfacet
facet normal 0 -1 0
  outer loop
    vertex -0.381034 3 0.00357462
    vertex -0.425862 3 -0.0137247
    vertex -0.403448 3 -0.05
  endloop
endfacet
facet normal 0 -1 0
  outer loop
    vertex 0.448276 3 -0.05
    vertex 0.47069 3 -0.0144396
    vertex 0.425862 3 -7.5766e-17
  endloop
endfacet
facet normal 0 -1 -0
  outer loop
    vertex 0.313793 3 0.05
    vertex 0.292778 3 0.0129076
    vertex 0.336207 3 -0.00357462
  endloop
endfacet
facet normal 0 -1 0
  outer loop
    vertex 0.627586 3 -0.05
    vertex 0.65 3 -0.0137247
    vertex 0.605172 3 0.00357462
  endloop
endfacet
facet normal 0 -1 0
  outer loop
    vertex 0.806897 3 -0.05
    vertex 0.82931 3 -0.0137247
    vertex 0.784483 3 0.00357462
  endloop
endfacet
facet normal 0 -1 0
  outer loop
    vertex 0.986207 3 -0.05
    vertex 1.00862 3 -0.0137247
    vertex 0.963793 3 0.00357462
  endloop
endfacet
facet normal 0 -1 0
  outer loop
    vertex -0.358621 3 -0.05
    vertex -0.337606 3 -0.0129076
    vertex -0.381034 3 0.00357462
  endloop
endfacet
facet normal 0 -1 0
  outer loop
    vertex 0.515517 3 0.00357462
    vertex 0.47069 3 -0.0144396
    vertex 0.493103 3 -0.05
  endloop
endfacet
facet normal 0 -1 0
  outer loop
    vertex 1.07586 3 -0.05
    vertex 1.09688 3 -0.0129076
    vertex 1.05345 3 0.00357462
  endloop
endfacet
facet normal 0 -1 0
  outer loop
    vertex 0.694828 3 0.00357462
    vertex 0.65 3 -0.0137247
    vertex 0.672414 3 -0.05
  endloop
endfacet
facet normal 0 -1 0
  outer loop
    vertex -0.649539 3 -0.000338178
    vertex -0.60508 3 0.0150869
    vertex -0.627586 3 0.05
  endloop
endfacet
facet normal 0 -1 -0
  outer loop
    vertex -0.582759 3 0.05
    vertex -0.60508 3 0.0150869
    vertex -0.560345 3 2.33754e-16
  endloop
endfacet
facet normal 0 -1 0
  outer loop
    vertex -1.05299 3 -0.000338178
    vertex -1.00853 3 0.014372
    vertex -1.03103 3 0.05
  endloop
endfacet
facet normal 0 -1 0
  outer loop
    vertex 1.05345 3 0.00357462
    vertex 1.00862 3 -0.0137247
    vertex 1.03103 3 -0.05
  endloop
endfacet
facet normal 0 -1 0
  outer loop
    vertex -1.03103 3 -0.05
    vertex -1.00854 3 -0.0197136
    vertex -1.05299 3 -0.000338178
  endloop
endfacet
facet normal 0 -1 -0
  outer loop
    vertex 1.03103 3 0.05
    vertex 1.00862 3 0.0213995
    vertex 1.05345 3 0.00357462
  endloop
endfacet
facet normal 0 -1 -0
  outer loop
    vertex 0.762069 3 0.05
    vertex 0.739655 3 0.0213995
    vertex 0.784483 3 0.00357462
  endloop
endfacet
facet normal 0 -1 -0
  outer loop
    vertex 0.851724 3 0.05
    vertex 0.82931 3 0.0213995
    vertex 0.874138 3 0.00357462
  endloop
endfacet
facet normal 0 -1 0
  outer loop
    vertex -0.851724 3 -0.05
    vertex -0.830453 3 -0.0212918
    vertex -0.874138 3 -0.00357462
  endloop
endfacet
facet normal 0 -1 -0
  outer loop
    vertex 1.12069 3 0.05
    vertex 1.09713 3 0.0212918
    vertex 1.13331 3 0.0017022
  endloop
endfacet
facet normal 0 -1 0
  outer loop
    vertex -0.627586 3 -0.05
    vertex -0.605093 3 -0.0191008
    vertex -0.649539 3 -0.000338178
  endloop
endfacet
facet normal 0 -1 0
  outer loop
    vertex -0.941379 3 -0.05
    vertex -0.918966 3 -0.0213995
    vertex -0.963793 3 -0.00357462
  endloop
endfacet
facet normal 0 -1 -0
  outer loop
    vertex 0.672414 3 0.05
    vertex 0.65 3 0.0213995
    vertex 0.694828 3 0.00357462
  endloop
endfacet
facet normal 0 -1 -0
  outer loop
    vertex 0.941379 3 0.05
    vertex 0.918966 3 0.0213995
    vertex 0.963793 3 0.00357462
  endloop
endfacet
facet normal 0 -1 -0
  outer loop
    vertex 0.582759 3 0.05
    vertex 0.560345 3 0.0213995
    vertex 0.605172 3 0.00357462
  endloop
endfacet
facet normal 0 -1 0
  outer loop
    vertex 1.05345 3 0.00357462
    vertex 1.09713 3 0.0212918
    vertex 1.07586 3 0.05
  endloop
endfacet
facet normal 0 -1 0
  outer loop
    vertex 0.358621 3 -0.05
    vertex 0.381034 3 -0.0196556
    vertex 0.336207 3 -0.00357462
  endloop
endfacet
facet normal 0 -1 0
  outer loop
    vertex -0.794277 3 -0.0017022
    vertex -0.830453 3 -0.0212918
    vertex -0.806897 3 -0.05
  endloop
endfacet
facet normal 0 -1 -0
  outer loop
    vertex -0.493103 3 0.05
    vertex -0.515517 3 0.0196556
    vertex -0.47069 3 0.00357462
  endloop
endfacet
facet normal 0 -1 -0
  outer loop
    vertex 0.493103 3 0.05
    vertex 0.47069 3 0.0196556
    vertex 0.515517 3 0.00357462
  endloop
endfacet
facet normal 0 -1 -0
  outer loop
    vertex -0.403448 3 0.05
    vertex -0.425862 3 0.0213995
    vertex -0.381034 3 0.00357462
  endloop
endfacet
facet normal 0 -1 0
  outer loop
    vertex 0.425862 3 -7.5766e-17
    vertex 0.381034 3 -0.0196556
    vertex 0.403448 3 -0.05
  endloop
endfacet
facet normal 0 -1 0
  outer loop
    vertex -0.560345 3 2.33754e-16
    vertex -0.515517 3 0.0196556
    vertex -0.537931 3 0.05
  endloop
endfacet
facet normal 0 -1 0
  outer loop
    vertex 0.425862 3 -7.5766e-17
    vertex 0.47069 3 0.0196556
    vertex 0.448276 3 0.05
  endloop
endfacet
facet normal 0 -1 -0
  outer loop
    vertex -0.313793 3 0.05
    vertex -0.337349 3 0.0212918
    vertex -0.301174 3 0.0017022
  endloop
endfacet
facet normal 0 -1 0
  outer loop
    vertex 0.268966 3 -0.05
    vertex 0.292522 3 -0.0212918
    vertex 0.256346 3 -0.0017022
  endloop
endfacet
facet normal 0 -1 0
  outer loop
    vertex 0.694828 3 0.00357462
    vertex 0.739655 3 0.0213995
    vertex 0.717241 3 0.05
  endloop
endfacet
facet normal 0 -1 0
  outer loop
    vertex 0.336207 3 -0.00357462
    vertex 0.292522 3 -0.0212918
    vertex 0.313793 3 -0.05
  endloop
endfacet
facet normal 0 -1 0
  outer loop
    vertex -0.381034 3 0.00357462
    vertex -0.337349 3 0.0212918
    vertex -0.358621 3 0.05
  endloop
endfacet
facet normal 0 -1 0
  outer loop
    vertex -0.47069 3 0.00357462
    vertex -0.425862 3 0.0213995
    vertex -0.448276 3 0.05
  endloop
endfacet
facet normal 0 -1 0
  outer loop
    vertex -0.560345 3 2.33754e-16
    vertex -0.605093 3 -0.0191008
    vertex -0.582759 3 -0.05
  endloop
endfacet
facet normal 0 -1 0
  outer loop
    vertex 0.515517 3 0.00357462
    vertex 0.560345 3 0.0213995
    vertex 0.537931 3 0.05
  endloop
endfacet
facet normal 0 -1 0
  outer loop
    vertex 0.605172 3 0.00357462
    vertex 0.65 3 0.0213995
    vertex 0.627586 3 0.05
  endloop
endfacet
facet normal 0 -1 0
  outer loop
    vertex 0.784483 3 0.00357462
    vertex 0.82931 3 0.0213995
    vertex 0.806897 3 0.05
  endloop
endfacet
facet normal 0 -1 0
  outer loop
    vertex 0.874138 3 0.00357462
    vertex 0.918966 3 0.0213995
    vertex 0.896552 3 0.05
  endloop
endfacet
facet normal 0 -1 0
  outer loop
    vertex -0.874138 3 -0.00357462
    vertex -0.918966 3 -0.0213995
    vertex -0.896552 3 -0.05
  endloop
endfacet
facet normal 0 -1 0
  outer loop
    vertex -0.963793 3 -0.00357462
    vertex -1.00854 3 -0.0197136
    vertex -0.986207 3 -0.05
  endloop
endfacet
facet normal 0 -1 0
  outer loop
    vertex 0.963793 3 0.00357462
    vertex 1.00862 3 0.0213995
    vertex 0.986207 3 0.05
  endloop
endfacet
facet normal 0 -1 0
  outer loop
    vertex -0.156897 3 0.00289826
    vertex -0.114486 3 0.019446
    vertex -0.134483 3 0.05
  endloop
endfacet
facet normal 0 -1 0
  outer loop
    vertex -0.0130589 3 0.00138013
    vertex 0.0214882 3 0.0193176
    vertex 6.66134e-16 3 0.05
  endloop
endfacet
facet normal 0 -1 -0
  outer loop
    vertex -0.672414 3 0.05
    vertex -0.691333 3 0.0171771
    vertex -0.649539 3 -0.000338178
  endloop
endfacet
facet normal 0 -1 -0
  outer loop
    vertex -0.17931 3 0.05
    vertex -0.199307 3 0.019446
    vertex -0.156897 3 0.00289826
  endloop
endfacet
facet normal 0 -1 0
  outer loop
    vertex 0.134483 3 -0.05
    vertex 0.155971 3 -0.0193176
    vertex 0.121424 3 -0.00138013
  endloop
endfacet
facet normal 0 -1 -0
  outer loop
    vertex -1.07586 3 0.05
    vertex -1.09478 3 0.0171771
    vertex -1.05299 3 -0.000338178
  endloop
endfacet
facet normal 0 -1 0
  outer loop
    vertex -0.134483 3 -0.05
    vertex -0.114889 3 -0.014509
    vertex -0.156897 3 0.00289826
  endloop
endfacet
facet normal 0 -1 0
  outer loop
    vertex 0.121424 3 -0.00138013
    vertex 0.155164 3 0.01389
    vertex 0.134483 3 0.05
  endloop
endfacet
facet normal 0 -1 0
  outer loop
    vertex -1.05299 3 -0.000338178
    vertex -1.09536 3 -0.0151563
    vertex -1.07586 3 -0.05
  endloop
endfacet
facet normal 0 -1 0
  outer loop
    vertex -0.156897 3 0.00289826
    vertex -0.198904 3 -0.014509
    vertex -0.17931 3 -0.05
  endloop
endfacet
facet normal 0 -1 0
  outer loop
    vertex -0.649539 3 -0.000338178
    vertex -0.691915 3 -0.0151563
    vertex -0.672414 3 -0.05
  endloop
endfacet
facet normal 0 -1 0
  outer loop
    vertex -6.66134e-16 3 -0.05
    vertex 0.0206811 3 -0.01389
    vertex -0.0130589 3 0.00138013
  endloop
endfacet
facet normal 0 -1 -0
  outer loop
    vertex -1.21034 3 0.05
    vertex -1.22271 3 0.0157617
    vertex -1.19164 3 -0.00018822
  endloop
endfacet
facet normal 0 -1 0
  outer loop
    vertex -1.12069 3 -0.05
    vertex -1.09536 3 -0.0151563
    vertex -1.129 3 0.00138013
  endloop
endfacet
facet normal 0 -1 0
  outer loop
    vertex -0.0813424 3 0.00138013
    vertex -0.114889 3 -0.014509
    vertex -0.0896552 3 -0.05
  endloop
endfacet
facet normal 0 -1 0
  outer loop
    vertex -0.224138 3 -0.05
    vertex -0.198904 3 -0.014509
    vertex -0.232451 3 0.00138013
  endloop
endfacet
facet normal 0 -1 -0
  outer loop
    vertex 0.17931 3 0.05
    vertex 0.155164 3 0.01389
    vertex 0.187623 3 -0.00138013
  endloop
endfacet
facet normal 0 -1 0
  outer loop
    vertex 0.0531404 3 0.00138013
    vertex 0.0206811 3 -0.01389
    vertex 0.0448276 3 -0.05
  endloop
endfacet
facet normal 0 -1 0
  outer loop
    vertex -0.717241 3 -0.05
    vertex -0.691915 3 -0.0151563
    vertex -0.725554 3 0.00138013
  endloop
endfacet
facet normal 0 -1 0
  outer loop
    vertex -1.19164 3 -0.00018822
    vertex -1.22467 3 -0.0181411
    vertex -1.21034 3 -0.05
  endloop
endfacet
facet normal 0 -1 0
  outer loop
    vertex -0.0896552 3 -0.05
    vertex -0.048519 3 -0.0183214
    vertex -0.0813424 3 0.00138013
  endloop
endfacet
facet normal 0 -1 0
  outer loop
    vertex 0.0448276 3 -0.05
    vertex 0.0859637 3 -0.0183214
    vertex 0.0531404 3 0.00138013
  endloop
endfacet
facet normal 0 -1 -0
  outer loop
    vertex -1.129 3 0.00138013
    vertex -1.16183 3 -0.0183214
    vertex -1.12069 3 -0.05
  endloop
endfacet
facet normal 0 -1 0
  outer loop
    vertex -0.0813424 3 0.00138013
    vertex -0.048519 3 0.0183214
    vertex -0.0896552 3 0.05
  endloop
endfacet
facet normal 0 -1 0
  outer loop
    vertex -0.224138 3 0.05
    vertex -0.265274 3 0.0183214
    vertex -0.232451 3 0.00138013
  endloop
endfacet
facet normal 0 -1 0
  outer loop
    vertex 0.17931 3 -0.05
    vertex 0.220447 3 -0.0183214
    vertex 0.187623 3 -0.00138013
  endloop
endfacet
facet normal 0 -1 0
  outer loop
    vertex 0.0531404 3 0.00138013
    vertex 0.0859637 3 0.0183214
    vertex 0.0448276 3 0.05
  endloop
endfacet
facet normal 0 -1 -0
  outer loop
    vertex -0.232451 3 0.00138013
    vertex -0.265274 3 -0.0183214
    vertex -0.224138 3 -0.05
  endloop
endfacet
facet normal 0 -1 0
  outer loop
    vertex 0.187623 3 -0.00138013
    vertex 0.220447 3 0.0183214
    vertex 0.17931 3 0.05
  endloop
endfacet
facet normal 0 -1 0
  outer loop
    vertex -1.12069 3 0.05
    vertex -1.16183 3 0.0183214
    vertex -1.129 3 0.00138013
  endloop
endfacet
facet normal 0 -1 -0
  outer loop
    vertex -0.725554 3 0.00138013
    vertex -0.758378 3 -0.0183214
    vertex -0.717241 3 -0.05
  endloop
endfacet
facet normal 0 -1 0
  outer loop
    vertex -0.717241 3 0.05
    vertex -0.758378 3 0.0183214
    vertex -0.725554 3 0.00138013
  endloop
endfacet
facet normal 0 -1 -0
  outer loop
    vertex 1.19746 3 3.16094e-18
    vertex 1.16921 3 -0.0183214
    vertex 1.21034 3 -0.05
  endloop
endfacet
facet normal 0 -1 0
  outer loop
    vertex 1.21034 3 0.05
    vertex 1.16921 3 0.0183214
    vertex 1.19746 3 3.16094e-18
  endloop
endfacet
facet normal 0 -1 0
  outer loop
    vertex -1.25517 3 -0.05
    vertex -1.2775 3 -0.0261905
    vertex -1.3 3 -0.05
  endloop
endfacet
facet normal 0 -1 0
  outer loop
    vertex 1.25517 3 0.05
    vertex 1.27767 3 0.0261905
    vertex 1.3 3 0.05
  endloop
endfacet
facet normal 0 -1 0
  outer loop
    vertex 1.3 3 -0.05
    vertex 1.27767 3 -0.0261905
    vertex 1.25517 3 -0.05
  endloop
endfacet
facet normal 0 -1 0
  outer loop
    vertex -1.3 3 0.05
    vertex -1.2775 3 0.0261905
    vertex -1.25517 3 0.05
  endloop
endfacet
facet normal 0 -1 0
  outer loop
    vertex -1.2528 3 4.14707e-17
    vertex -1.22271 3 0.0157617
    vertex -1.25517 3 0.05
  endloop
endfacet
facet normal 0 -1 0
  outer loop
    vertex 1.21034 3 -0.05
    vertex 1.22618 3 -0.0174235
    vertex 1.19746 3 3.16094e-18
  endloop
endfacet
facet normal 0 -1 0
  outer loop
    vertex 1.19746 3 3.16094e-18
    vertex 1.22639 3 0.0175455
    vertex 1.21034 3 0.05
  endloop
endfacet
facet normal 0 -1 -0
  outer loop
    vertex 0.0448276 3 0.05
    vertex 0.0214882 3 0.0193176
    vertex 0.0531404 3 0.00138013
  endloop
endfacet
facet normal 0 -1 -0
  outer loop
    vertex -0.0896552 3 0.05
    vertex -0.114486 3 0.019446
    vertex -0.0813424 3 0.00138013
  endloop
endfacet
facet normal 0 -1 0
  outer loop
    vertex -0.725554 3 0.00138013
    vertex -0.691333 3 0.0171771
    vertex -0.717241 3 0.05
  endloop
endfacet
facet normal 0 -1 0
  outer loop
    vertex -0.232451 3 0.00138013
    vertex -0.199307 3 0.019446
    vertex -0.224138 3 0.05
  endloop
endfacet
facet normal 0 -1 0
  outer loop
    vertex -1.129 3 0.00138013
    vertex -1.09478 3 0.0171771
    vertex -1.12069 3 0.05
  endloop
endfacet
facet normal 0 -1 0
  outer loop
    vertex 0.187623 3 -0.00138013
    vertex 0.155971 3 -0.0193176
    vertex 0.17931 3 -0.05
  endloop
endfacet
facet normal 0 -1 0
  outer loop
    vertex 0.762069 3 -0.05
    vertex 0.739655 3 -0.0137247
    vertex 0.717241 3 -0.05
  endloop
endfacet
facet normal 0 -1 0
  outer loop
    vertex -0.851724 3 0.05
    vertex -0.83071 3 0.0129076
    vertex -0.806897 3 0.05
  endloop
endfacet
facet normal 0 -1 0
  outer loop
    vertex 0.941379 3 -0.05
    vertex 0.918966 3 -0.0137247
    vertex 0.896552 3 -0.05
  endloop
endfacet
facet normal 0 -1 0
  outer loop
    vertex -0.941379 3 0.05
    vertex -0.918966 3 0.0137247
    vertex -0.896552 3 0.05
  endloop
endfacet
facet normal 0 -1 0
  outer loop
    vertex -0.493103 3 -0.05
    vertex -0.515517 3 -0.0144396
    vertex -0.537931 3 -0.05
  endloop
endfacet
facet normal 0 -1 0
  outer loop
    vertex 0.582759 3 -0.05
    vertex 0.560345 3 -0.0137247
    vertex 0.537931 3 -0.05
  endloop
endfacet
facet normal 0 -1 0
  outer loop
    vertex 0.851724 3 -0.05
    vertex 0.82931 3 -0.0137247
    vertex 0.806897 3 -0.05
  endloop
endfacet
facet normal 0 -1 0
  outer loop
    vertex 0.358621 3 0.05
    vertex 0.381034 3 0.0144396
    vertex 0.403448 3 0.05
  endloop
endfacet
facet normal 0 -1 0
  outer loop
    vertex -0.313793 3 -0.05
    vertex -0.337606 3 -0.0129076
    vertex -0.358621 3 -0.05
  endloop
endfacet
facet normal 0 -1 0
  outer loop
    vertex 0.493103 3 -0.05
    vertex 0.47069 3 -0.0144396
    vertex 0.448276 3 -0.05
  endloop
endfacet
facet normal 0 -1 0
  outer loop
    vertex 0.268966 3 0.05
    vertex 0.292778 3 0.0129076
    vertex 0.313793 3 0.05
  endloop
endfacet
facet normal 0 -1 0
  outer loop
    vertex -0.403448 3 -0.05
    vertex -0.425862 3 -0.0137247
    vertex -0.448276 3 -0.05
  endloop
endfacet
facet normal 0 -1 0
  outer loop
    vertex 0.672414 3 -0.05
    vertex 0.65 3 -0.0137247
    vertex 0.627586 3 -0.05
  endloop
endfacet
facet normal 0 -1 0
  outer loop
    vertex -1.03103 3 0.05
    vertex -1.00853 3 0.014372
    vertex -0.986207 3 0.05
  endloop
endfacet
facet normal 0 -1 0
  outer loop
    vertex -0.627586 3 0.05
    vertex -0.60508 3 0.0150869
    vertex -0.582759 3 0.05
  endloop
endfacet
facet normal 0 -1 0
  outer loop
    vertex 1.12069 3 -0.05
    vertex 1.09688 3 -0.0129076
    vertex 1.07586 3 -0.05
  endloop
endfacet
facet normal 0 -1 0
  outer loop
    vertex 1.03103 3 -0.05
    vertex 1.00862 3 -0.0137247
    vertex 0.986207 3 -0.05
  endloop
endfacet
facet normal 0 -1 0
  outer loop
    vertex 1.25517 3 -0.05
    vertex 1.27767 3 -0.0261905
    vertex 1.25402 3 2.23753e-17
  endloop
endfacet
facet normal 0 -1 -0
  outer loop
    vertex -1.25517 3 0.05
    vertex -1.2775 3 0.0261905
    vertex -1.2528 3 4.14707e-17
  endloop
endfacet
facet normal 0 -1 0
  outer loop
    vertex -1.2528 3 4.14707e-17
    vertex -1.2775 3 -0.0261905
    vertex -1.25517 3 -0.05
  endloop
endfacet
facet normal 0 -1 0
  outer loop
    vertex 1.25402 3 2.23753e-17
    vertex 1.27767 3 0.0261905
    vertex 1.25517 3 0.05
  endloop
endfacet
facet normal 0 -1 0
  outer loop
    vertex -0.0448276 3 -0.05
    vertex -0.048519 3 -0.0183214
    vertex -0.0896552 3 -0.05
  endloop
endfacet
facet normal 0 -1 0
  outer loop
    vertex 0.0896552 3 -0.05
    vertex 0.0859637 3 -0.0183214
    vertex 0.0448276 3 -0.05
  endloop
endfacet
facet normal 0 -1 0
  outer loop
    vertex 0.224138 3 -0.05
    vertex 0.220447 3 -0.0183214
    vertex 0.17931 3 -0.05
  endloop
endfacet
facet normal 0 -1 0
  outer loop
    vertex -1.12069 3 -0.05
    vertex -1.16183 3 -0.0183214
    vertex -1.16552 3 -0.05
  endloop
endfacet
facet normal 0 -1 0
  outer loop
    vertex -0.268966 3 0.05
    vertex -0.265274 3 0.0183214
    vertex -0.224138 3 0.05
  endloop
endfacet
facet normal 0 -1 0
  outer loop
    vertex -0.224138 3 -0.05
    vertex -0.265274 3 -0.0183214
    vertex -0.268966 3 -0.05
  endloop
endfacet
facet normal 0 -1 0
  outer loop
    vertex -0.0896552 3 0.05
    vertex -0.048519 3 0.0183214
    vertex -0.0448276 3 0.05
  endloop
endfacet
facet normal 0 -1 0
  outer loop
    vertex 0.0448276 3 0.05
    vertex 0.0859637 3 0.0183214
    vertex 0.0896552 3 0.05
  endloop
endfacet
facet normal 0 -1 0
  outer loop
    vertex -1.16552 3 0.05
    vertex -1.16183 3 0.0183214
    vertex -1.12069 3 0.05
  endloop
endfacet
facet normal 0 -1 0
  outer loop
    vertex 0.17931 3 0.05
    vertex 0.220447 3 0.0183214
    vertex 0.224138 3 0.05
  endloop
endfacet
facet normal 0 -1 0
  outer loop
    vertex -0.717241 3 -0.05
    vertex -0.758378 3 -0.0183214
    vertex -0.762069 3 -0.05
  endloop
endfacet
facet normal 0 -1 0
  outer loop
    vertex -0.762069 3 0.05
    vertex -0.758378 3 0.0183214
    vertex -0.717241 3 0.05
  endloop
endfacet
facet normal 0 -1 0
  outer loop
    vertex 1.21034 3 -0.05
    vertex 1.16921 3 -0.0183214
    vertex 1.16552 3 -0.05
  endloop
endfacet
facet normal 0 -1 0
  outer loop
    vertex 1.16552 3 0.05
    vertex 1.16921 3 0.0183214
    vertex 1.21034 3 0.05
  endloop
endfacet
facet normal 0 -1 0
  outer loop
    vertex -0.874138 3 -0.00357462
    vertex -0.830453 3 -0.0212918
    vertex -0.83071 3 0.0129076
  endloop
endfacet
facet normal -0 -1 0
  outer loop
    vertex 0.874138 3 0.00357462
    vertex 0.82931 3 0.0213995
    vertex 0.82931 3 -0.0137247
  endloop
endfacet
facet normal -0 -1 0
  outer loop
    vertex 0.963793 3 0.00357462
    vertex 0.918966 3 0.0213995
    vertex 0.918966 3 -0.0137247
  endloop
endfacet
facet normal 0 -1 0
  outer loop
    vertex -0.963793 3 -0.00357462
    vertex -0.918966 3 -0.0213995
    vertex -0.918966 3 0.0137247
  endloop
endfacet
facet normal -0 -1 0
  outer loop
    vertex 0.694828 3 0.00357462
    vertex 0.65 3 0.0213995
    vertex 0.65 3 -0.0137247
  endloop
endfacet
facet normal -0 -1 0
  outer loop
    vertex 0.784483 3 0.00357462
    vertex 0.739655 3 0.0213995
    vertex 0.739655 3 -0.0137247
  endloop
endfacet
facet normal -0 -1 0
  outer loop
    vertex 1.13331 3 0.0017022
    vertex 1.09713 3 0.0212918
    vertex 1.09688 3 -0.0129076
  endloop
endfacet
facet normal -0 -1 0
  outer loop
    vertex 0.605172 3 0.00357462
    vertex 0.560345 3 0.0213995
    vertex 0.560345 3 -0.0137247
  endloop
endfacet
facet normal 0 -1 0
  outer loop
    vertex -0.649539 3 -0.000338178
    vertex -0.605093 3 -0.0191008
    vertex -0.60508 3 0.0150869
  endloop
endfacet
facet normal 0 -1 0
  outer loop
    vertex -1.05299 3 -0.000338178
    vertex -1.00854 3 -0.0197136
    vertex -1.00853 3 0.014372
  endloop
endfacet
facet normal -0 -1 0
  outer loop
    vertex 1.05345 3 0.00357462
    vertex 1.00862 3 0.0213995
    vertex 1.00862 3 -0.0137247
  endloop
endfacet
facet normal -0 -1 0
  outer loop
    vertex -0.47069 3 0.00357462
    vertex -0.515517 3 0.0196556
    vertex -0.515517 3 -0.0144396
  endloop
endfacet
facet normal 0 -1 0
  outer loop
    vertex 0.336207 3 -0.00357462
    vertex 0.381034 3 -0.0196556
    vertex 0.381034 3 0.0144396
  endloop
endfacet
facet normal 0 -1 0
  outer loop
    vertex -0.515517 3 -0.0144396
    vertex -0.515517 3 0.0196556
    vertex -0.560345 3 2.33754e-16
  endloop
endfacet
facet normal 0 -1 0
  outer loop
    vertex -0.83071 3 0.0129076
    vertex -0.830453 3 -0.0212918
    vertex -0.794277 3 -0.0017022
  endloop
endfacet
facet normal -0 -1 0
  outer loop
    vertex 0.515517 3 0.00357462
    vertex 0.47069 3 0.0196556
    vertex 0.47069 3 -0.0144396
  endloop
endfacet
facet normal 0 -1 0
  outer loop
    vertex 0.739655 3 -0.0137247
    vertex 0.739655 3 0.0213995
    vertex 0.694828 3 0.00357462
  endloop
endfacet
facet normal -0 -1 0
  outer loop
    vertex -0.381034 3 0.00357462
    vertex -0.425862 3 0.0213995
    vertex -0.425862 3 -0.0137247
  endloop
endfacet
facet normal 0 -1 0
  outer loop
    vertex 0.381034 3 0.0144396
    vertex 0.381034 3 -0.0196556
    vertex 0.425862 3 -7.5766e-17
  endloop
endfacet
facet normal 0 -1 0
  outer loop
    vertex 1.09688 3 -0.0129076
    vertex 1.09713 3 0.0212918
    vertex 1.05345 3 0.00357462
  endloop
endfacet
facet normal -0 -1 0
  outer loop
    vertex -0.301174 3 0.0017022
    vertex -0.337349 3 0.0212918
    vertex -0.337606 3 -0.0129076
  endloop
endfacet
facet normal 0 -1 0
  outer loop
    vertex 0.47069 3 -0.0144396
    vertex 0.47069 3 0.0196556
    vertex 0.425862 3 -7.5766e-17
  endloop
endfacet
facet normal 0 -1 -0
  outer loop
    vertex 0.292778 3 0.0129076
    vertex 0.292522 3 -0.0212918
    vertex 0.336207 3 -0.00357462
  endloop
endfacet
facet normal 0 -1 0
  outer loop
    vertex 0.256346 3 -0.0017022
    vertex 0.292522 3 -0.0212918
    vertex 0.292778 3 0.0129076
  endloop
endfacet
facet normal 0 -1 0
  outer loop
    vertex -0.337606 3 -0.0129076
    vertex -0.337349 3 0.0212918
    vertex -0.381034 3 0.00357462
  endloop
endfacet
facet normal 0 -1 0
  outer loop
    vertex -0.425862 3 -0.0137247
    vertex -0.425862 3 0.0213995
    vertex -0.47069 3 0.00357462
  endloop
endfacet
facet normal 0 -1 0
  outer loop
    vertex 0.560345 3 -0.0137247
    vertex 0.560345 3 0.0213995
    vertex 0.515517 3 0.00357462
  endloop
endfacet
facet normal 0 -1 -0
  outer loop
    vertex -0.60508 3 0.0150869
    vertex -0.605093 3 -0.0191008
    vertex -0.560345 3 2.33754e-16
  endloop
endfacet
facet normal 0 -1 0
  outer loop
    vertex 0.918966 3 -0.0137247
    vertex 0.918966 3 0.0213995
    vertex 0.874138 3 0.00357462
  endloop
endfacet
facet normal 0 -1 0
  outer loop
    vertex 0.65 3 -0.0137247
    vertex 0.65 3 0.0213995
    vertex 0.605172 3 0.00357462
  endloop
endfacet
facet normal 0 -1 0
  outer loop
    vertex -0.918966 3 0.0137247
    vertex -0.918966 3 -0.0213995
    vertex -0.874138 3 -0.00357462
  endloop
endfacet
facet normal 0 -1 0
  outer loop
    vertex 0.82931 3 -0.0137247
    vertex 0.82931 3 0.0213995
    vertex 0.784483 3 0.00357462
  endloop
endfacet
facet normal 0 -1 -0
  outer loop
    vertex -1.00853 3 0.014372
    vertex -1.00854 3 -0.0197136
    vertex -0.963793 3 -0.00357462
  endloop
endfacet
facet normal 0 -1 0
  outer loop
    vertex 1.00862 3 -0.0137247
    vertex 1.00862 3 0.0213995
    vertex 0.963793 3 0.00357462
  endloop
endfacet
facet normal 0 -1 0
  outer loop
    vertex -1.07586 3 -0.05
    vertex -1.09536 3 -0.0151563
    vertex -1.12069 3 -0.05
  endloop
endfacet
facet normal 0 -1 0
  outer loop
    vertex -0.0896552 3 -0.05
    vertex -0.114889 3 -0.014509
    vertex -0.134483 3 -0.05
  endloop
endfacet
facet normal 0 -1 0
  outer loop
    vertex 0.134483 3 0.05
    vertex 0.155164 3 0.01389
    vertex 0.17931 3 0.05
  endloop
endfacet
facet normal 0 -1 0
  outer loop
    vertex -0.17931 3 -0.05
    vertex -0.198904 3 -0.014509
    vertex -0.224138 3 -0.05
  endloop
endfacet
facet normal 0 -1 0
  outer loop
    vertex 0.0448276 3 -0.05
    vertex 0.0206811 3 -0.01389
    vertex -6.66134e-16 3 -0.05
  endloop
endfacet
facet normal 0 -1 0
  outer loop
    vertex -0.672414 3 -0.05
    vertex -0.691915 3 -0.0151563
    vertex -0.717241 3 -0.05
  endloop
endfacet
facet normal 0 -1 0
  outer loop
    vertex -0.114889 3 -0.014509
    vertex -0.114486 3 0.019446
    vertex -0.156897 3 0.00289826
  endloop
endfacet
facet normal 0 -1 0
  outer loop
    vertex 0.0206811 3 -0.01389
    vertex 0.0214882 3 0.0193176
    vertex -0.0130589 3 0.00138013
  endloop
endfacet
facet normal -0 -1 0
  outer loop
    vertex -0.649539 3 -0.000338178
    vertex -0.691333 3 0.0171771
    vertex -0.691915 3 -0.0151563
  endloop
endfacet
facet normal -0 -1 0
  outer loop
    vertex -0.156897 3 0.00289826
    vertex -0.199307 3 0.019446
    vertex -0.198904 3 -0.014509
  endloop
endfacet
facet normal 0 -1 0
  outer loop
    vertex 0.121424 3 -0.00138013
    vertex 0.155971 3 -0.0193176
    vertex 0.155164 3 0.01389
  endloop
endfacet
facet normal -0 -1 0
  outer loop
    vertex -1.05299 3 -0.000338178
    vertex -1.09478 3 0.0171771
    vertex -1.09536 3 -0.0151563
  endloop
endfacet
facet normal 0 -1 0
  outer loop
    vertex -1.25517 3 -0.05
    vertex -1.22467 3 -0.0181411
    vertex -1.2528 3 4.14707e-17
  endloop
endfacet
facet normal 0 -1 -0
  outer loop
    vertex 1.25402 3 2.23753e-17
    vertex 1.22618 3 -0.0174235
    vertex 1.25517 3 -0.05
  endloop
endfacet
facet normal 0 -1 0
  outer loop
    vertex 1.25517 3 0.05
    vertex 1.22639 3 0.0175455
    vertex 1.25402 3 2.23753e-17
  endloop
endfacet
facet normal 0 -1 0
  outer loop
    vertex -1.25517 3 0.05
    vertex -1.22271 3 0.0157617
    vertex -1.21034 3 0.05
  endloop
endfacet
facet normal 0 -1 0
  outer loop
    vertex -1.21034 3 -0.05
    vertex -1.22467 3 -0.0181411
    vertex -1.25517 3 -0.05
  endloop
endfacet
facet normal 0 -1 0
  outer loop
    vertex 1.25517 3 -0.05
    vertex 1.22618 3 -0.0174235
    vertex 1.21034 3 -0.05
  endloop
endfacet
facet normal 0 -1 0
  outer loop
    vertex 1.21034 3 0.05
    vertex 1.22639 3 0.0175455
    vertex 1.25517 3 0.05
  endloop
endfacet
facet normal 0 -1 0
  outer loop
    vertex -1.09536 3 -0.0151563
    vertex -1.09478 3 0.0171771
    vertex -1.129 3 0.00138013
  endloop
endfacet
facet normal -0 -1 0
  outer loop
    vertex -0.0813424 3 0.00138013
    vertex -0.114486 3 0.019446
    vertex -0.114889 3 -0.014509
  endloop
endfacet
facet normal 0 -1 0
  outer loop
    vertex 0.155164 3 0.01389
    vertex 0.155971 3 -0.0193176
    vertex 0.187623 3 -0.00138013
  endloop
endfacet
facet normal 0 -1 0
  outer loop
    vertex -0.198904 3 -0.014509
    vertex -0.199307 3 0.019446
    vertex -0.232451 3 0.00138013
  endloop
endfacet
facet normal -0 -1 0
  outer loop
    vertex 0.0531404 3 0.00138013
    vertex 0.0214882 3 0.0193176
    vertex 0.0206811 3 -0.01389
  endloop
endfacet
facet normal 0 -1 0
  outer loop
    vertex -0.691915 3 -0.0151563
    vertex -0.691333 3 0.0171771
    vertex -0.725554 3 0.00138013
  endloop
endfacet
facet normal 0 -1 0
  outer loop
    vertex 1.27767 3 -0.0261905
    vertex 1.28063 3 3.05789e-17
    vertex 1.25402 3 2.23753e-17
  endloop
endfacet
facet normal 0 -1 0
  outer loop
    vertex 1.25402 3 2.23753e-17
    vertex 1.28063 3 3.05789e-17
    vertex 1.27767 3 0.0261905
  endloop
endfacet
facet normal 0 -1 -0
  outer loop
    vertex -1.2775 3 0.0261905
    vertex -1.28156 3 2.70617e-17
    vertex -1.2528 3 4.14707e-17
  endloop
endfacet
facet normal 0 -1 0
  outer loop
    vertex -1.2528 3 4.14707e-17
    vertex -1.28156 3 2.70617e-17
    vertex -1.2775 3 -0.0261905
  endloop
endfacet
facet normal 0 -1 0
  outer loop
    vertex 6.66134e-16 3 0.05
    vertex 0.0214882 3 0.0193176
    vertex 0.0448276 3 0.05
  endloop
endfacet
facet normal 0 -1 0
  outer loop
    vertex -0.717241 3 0.05
    vertex -0.691333 3 0.0171771
    vertex -0.672414 3 0.05
  endloop
endfacet
facet normal 0 -1 0
  outer loop
    vertex 0.17931 3 -0.05
    vertex 0.155971 3 -0.0193176
    vertex 0.134483 3 -0.05
  endloop
endfacet
facet normal 0 -1 0
  outer loop
    vertex -0.224138 3 0.05
    vertex -0.199307 3 0.019446
    vertex -0.17931 3 0.05
  endloop
endfacet
facet normal 0 -1 0
  outer loop
    vertex -0.134483 3 0.05
    vertex -0.114486 3 0.019446
    vertex -0.0896552 3 0.05
  endloop
endfacet
facet normal 0 -1 0
  outer loop
    vertex -1.12069 3 0.05
    vertex -1.09478 3 0.0171771
    vertex -1.07586 3 0.05
  endloop
endfacet
facet normal 0 -1 0
  outer loop
    vertex 0.986207 3 0.05
    vertex 1.00862 3 0.0213995
    vertex 1.03103 3 0.05
  endloop
endfacet
facet normal 0 -1 0
  outer loop
    vertex -0.986207 3 -0.05
    vertex -1.00854 3 -0.0197136
    vertex -1.03103 3 -0.05
  endloop
endfacet
facet normal 0 -1 0
  outer loop
    vertex -0.358621 3 0.05
    vertex -0.337349 3 0.0212918
    vertex -0.313793 3 0.05
  endloop
endfacet
facet normal 0 -1 0
  outer loop
    vertex -0.582759 3 -0.05
    vertex -0.605093 3 -0.0191008
    vertex -0.627586 3 -0.05
  endloop
endfacet
facet normal 0 -1 0
  outer loop
    vertex -0.448276 3 0.05
    vertex -0.425862 3 0.0213995
    vertex -0.403448 3 0.05
  endloop
endfacet
facet normal 0 -1 0
  outer loop
    vertex -0.537931 3 0.05
    vertex -0.515517 3 0.0196556
    vertex -0.493103 3 0.05
  endloop
endfacet
facet normal 0 -1 0
  outer loop
    vertex -0.806897 3 -0.05
    vertex -0.830453 3 -0.0212918
    vertex -0.851724 3 -0.05
  endloop
endfacet
facet normal 0 -1 0
  outer loop
    vertex 0.313793 3 -0.05
    vertex 0.292522 3 -0.0212918
    vertex 0.268966 3 -0.05
  endloop
endfacet
facet normal 0 -1 0
  outer loop
    vertex 1.07586 3 0.05
    vertex 1.09713 3 0.0212918
    vertex 1.12069 3 0.05
  endloop
endfacet
facet normal 0 -1 0
  outer loop
    vertex 0.806897 3 0.05
    vertex 0.82931 3 0.0213995
    vertex 0.851724 3 0.05
  endloop
endfacet
facet normal 0 -1 0
  outer loop
    vertex 0.627586 3 0.05
    vertex 0.65 3 0.0213995
    vertex 0.672414 3 0.05
  endloop
endfacet
facet normal 0 -1 0
  outer loop
    vertex -0.896552 3 -0.05
    vertex -0.918966 3 -0.0213995
    vertex -0.941379 3 -0.05
  endloop
endfacet
facet normal 0 -1 0
  outer loop
    vertex 0.448276 3 0.05
    vertex 0.47069 3 0.0196556
    vertex 0.493103 3 0.05
  endloop
endfacet
facet normal 0 -1 0
  outer loop
    vertex 0.537931 3 0.05
    vertex 0.560345 3 0.0213995
    vertex 0.582759 3 0.05
  endloop
endfacet
facet normal 0 -1 0
  outer loop
    vertex 0.403448 3 -0.05
    vertex 0.381034 3 -0.0196556
    vertex 0.358621 3 -0.05
  endloop
endfacet
facet normal 0 -1 0
  outer loop
    vertex 0.717241 3 0.05
    vertex 0.739655 3 0.0213995
    vertex 0.762069 3 0.05
  endloop
endfacet
facet normal 0 -1 0
  outer loop
    vertex 0.896552 3 0.05
    vertex 0.918966 3 0.0213995
    vertex 0.941379 3 0.05
  endloop
endfacet
facet normal 0 -1 0
  outer loop
    vertex -1.3 3 -0.05
    vertex -1.2775 3 -0.0261905
    vertex -1.3 3 -0.0166667
  endloop
endfacet
facet normal 0 -1 -0
  outer loop
    vertex 1.3 3 0.05
    vertex 1.27767 3 0.0261905
    vertex 1.3 3 0.0166667
  endloop
endfacet
facet normal 0 -1 -0
  outer loop
    vertex 1.3 3 -0.0166667
    vertex 1.27767 3 -0.0261905
    vertex 1.3 3 -0.05
  endloop
endfacet
facet normal 0 -1 0
  outer loop
    vertex -1.3 3 0.0166667
    vertex -1.2775 3 0.0261905
    vertex -1.3 3 0.05
  endloop
endfacet
facet normal 0 -1 0
  outer loop
    vertex -1.3 3 -0.0166667
    vertex -1.28156 3 2.70617e-17
    vertex -1.3 3 0.0166667
  endloop
endfacet
facet normal 0 -1 -0
  outer loop
    vertex 1.3 3 0.0166667
    vertex 1.28063 3 3.05789e-17
    vertex 1.3 3 -0.0166667
  endloop
endfacet
facet normal 0 -1 -0
  outer loop
    vertex -1.22271 3 0.0157617
    vertex -1.22467 3 -0.0181411
    vertex -1.19164 3 -0.00018822
  endloop
endfacet
facet normal 0 -1 0
  outer loop
    vertex -1.2775 3 -0.0261905
    vertex -1.28156 3 2.70617e-17
    vertex -1.3 3 -0.0166667
  endloop
endfacet
facet normal 0 -1 0
  outer loop
    vertex -1.3 3 0.0166667
    vertex -1.28156 3 2.70617e-17
    vertex -1.2775 3 0.0261905
  endloop
endfacet
facet normal 0 -1 0
  outer loop
    vertex 1.27767 3 0.0261905
    vertex 1.28063 3 3.05789e-17
    vertex 1.3 3 0.0166667
  endloop
endfacet
facet normal -0 -1 0
  outer loop
    vertex 1.3 3 -0.0166667
    vertex 1.28063 3 3.05789e-17
    vertex 1.27767 3 -0.0261905
  endloop
endfacet
facet normal 0 -1 0
  outer loop
    vertex 1.22618 3 -0.0174235
    vertex 1.22639 3 0.0175455
    vertex 1.19746 3 3.16094e-18
  endloop
endfacet
facet normal -0 -1 0
  outer loop
    vertex 1.25402 3 2.23753e-17
    vertex 1.22639 3 0.0175455
    vertex 1.22618 3 -0.0174235
  endloop
endfacet
facet normal 0 -1 0
  outer loop
    vertex -1.2528 3 4.14707e-17
    vertex -1.22467 3 -0.0181411
    vertex -1.22271 3 0.0157617
  endloop
endfacet
facet normal 0 -1 0
  outer loop
    vertex 1.16921 3 -0.0183214
    vertex 1.16921 3 0.0183214
    vertex 1.13331 3 0.0017022
  endloop
endfacet
facet normal -0 -1 0
  outer loop
    vertex 1.19746 3 3.16094e-18
    vertex 1.16921 3 0.0183214
    vertex 1.16921 3 -0.0183214
  endloop
endfacet
facet normal -0 -1 0
  outer loop
    vertex -1.129 3 0.00138013
    vertex -1.16183 3 0.0183214
    vertex -1.16183 3 -0.0183214
  endloop
endfacet
facet normal 0 -1 0
  outer loop
    vertex -1.16183 3 -0.0183214
    vertex -1.16183 3 0.0183214
    vertex -1.19164 3 -0.00018822
  endloop
endfacet
facet normal 0 -1 0
  outer loop
    vertex -0.794277 3 -0.0017022
    vertex -0.758378 3 -0.0183214
    vertex -0.758378 3 0.0183214
  endloop
endfacet
facet normal 0 -1 -0
  outer loop
    vertex 0.0859637 3 0.0183214
    vertex 0.0859637 3 -0.0183214
    vertex 0.121424 3 -0.00138013
  endloop
endfacet
facet normal 0 -1 0
  outer loop
    vertex -0.0813424 3 0.00138013
    vertex -0.048519 3 -0.0183214
    vertex -0.048519 3 0.0183214
  endloop
endfacet
facet normal 0 -1 0
  outer loop
    vertex 0.0531404 3 0.00138013
    vertex 0.0859637 3 -0.0183214
    vertex 0.0859637 3 0.0183214
  endloop
endfacet
facet normal 0 -1 -0
  outer loop
    vertex -0.048519 3 0.0183214
    vertex -0.048519 3 -0.0183214
    vertex -0.0130589 3 0.00138013
  endloop
endfacet
facet normal 0 -1 -0
  outer loop
    vertex 0.220447 3 0.0183214
    vertex 0.220447 3 -0.0183214
    vertex 0.256346 3 -0.0017022
  endloop
endfacet
facet normal -0 -1 0
  outer loop
    vertex -0.232451 3 0.00138013
    vertex -0.265274 3 0.0183214
    vertex -0.265274 3 -0.0183214
  endloop
endfacet
facet normal 0 -1 0
  outer loop
    vertex -0.265274 3 -0.0183214
    vertex -0.265274 3 0.0183214
    vertex -0.301174 3 0.0017022
  endloop
endfacet
facet normal 0 -1 0
  outer loop
    vertex 0.187623 3 -0.00138013
    vertex 0.220447 3 -0.0183214
    vertex 0.220447 3 0.0183214
  endloop
endfacet
facet normal 0 -1 -0
  outer loop
    vertex -0.758378 3 0.0183214
    vertex -0.758378 3 -0.0183214
    vertex -0.725554 3 0.00138013
  endloop
endfacet
endsolid Created by Gmsh
