solid Created by Gmsh
facet normal 0 -1 0
  outer loop
    vertex -0.3 3 0.05
    vertex -0.4 3 0
    vertex -0.3 3 -0.05
  endloop
endfacet
facet normal 0 -1 0
  outer loop
    vertex 0.5 3 0.05
    vertex 0.4 3 -1.73472e-18
    vertex 0.5 3 -0.05
  endloop
endfacet
facet normal 0 -1 0
  outer loop
    vertex -0.1 3 0.05
    vertex -0.2 3 -1.73472e-18
    vertex -0.1 3 -0.05
  endloop
endfacet
facet normal 0 -1 0
  outer loop
    vertex 0.3 3 0.05
    vertex 0.2 3 1.73472e-18
    vertex 0.3 3 -0.05
  endloop
endfacet
facet normal 0 -1 0
  outer loop
    vertex 0.1 3 0.05
    vertex 2.05597e-17 3 0
    vertex 0.1 3 -0.05
  endloop
endfacet
facet normal 0 -1 0
  outer loop
    vertex 0.5 3 -0.05
    vertex 0.6 3 0
    vertex 0.5 3 0.05
  endloop
endfacet
facet normal 0 -1 0
  outer loop
    vertex -0.5 3 0.05
    vertex -0.6 3 0
    vertex -0.5 3 -0.05
  endloop
endfacet
facet normal 0 -1 0
  outer loop
    vertex -0.7 3 0.05
    vertex -0.8 3 -1.73472e-18
    vertex -0.7 3 -0.05
  endloop
endfacet
facet normal 0 -1 0
  outer loop
    vertex 0.7 3 -0.05
    vertex 0.8 3 0
    vertex 0.7 3 0.05
  endloop
endfacet
facet normal 0 -1 0
  outer loop
    vertex -0.9 3 0.05
    vertex -1 3 -1.73472e-18
    vertex -0.9 3 -0.05
  endloop
endfacet
facet normal 0 -1 0
  outer loop
    vertex 0.9 3 -0.05
    vertex 1 3 3.17207e-16
    vertex 0.9 3 0.05
  endloop
endfacet
facet normal 0 -1 0
  outer loop
    vertex -1.1 3 0.05
    vertex -1.2 3 0
    vertex -1.1 3 -0.05
  endloop
endfacet
facet normal 0 -1 0
  outer loop
    vertex 1.1 3 -0.05
    vertex 1.2 3 1.73472e-18
    vertex 1.1 3 0.05
  endloop
endfacet
facet normal 0 -1 -0
  outer loop
    vertex 1.3 3 0.05
    vertex 1.2 3 1.73472e-18
    vertex 1.3 3 -0.05
  endloop
endfacet
facet normal 0 -1 0
  outer loop
    vertex -1.3 3 -0.05
    vertex -1.2 3 0
    vertex -1.3 3 0.05
  endloop
endfacet
facet normal 0 -1 0
  outer loop
    vertex -1.1 3 -0.05
    vertex -1 3 -1.73472e-18
    vertex -1.1 3 0.05
  endloop
endfacet
facet normal 0 -1 0
  outer loop
    vertex 1.1 3 0.05
    vertex 1 3 3.17207e-16
    vertex 1.1 3 -0.05
  endloop
endfacet
facet normal 0 -1 0
  outer loop
    vertex -0.9 3 -0.05
    vertex -0.8 3 -1.73472e-18
    vertex -0.9 3 0.05
  endloop
endfacet
facet normal 0 -1 0
  outer loop
    vertex 0.9 3 0.05
    vertex 0.8 3 0
    vertex 0.9 3 -0.05
  endloop
endfacet
facet normal 0 -1 0
  outer loop
    vertex 0.3 3 -0.05
    vertex 0.4 3 -1.73472e-18
    vertex 0.3 3 0.05
  endloop
endfacet
facet normal 0 -1 0
  outer loop
    vertex -0.5 3 -0.05
    vertex -0.4 3 0
    vertex -0.5 3 0.05
  endloop
endfacet
facet normal 0 -1 0
  outer loop
    vertex -0.3 3 -0.05
    vertex -0.2 3 -1.73472e-18
    vertex -0.3 3 0.05
  endloop
endfacet
facet normal 0 -1 0
  outer loop
    vertex 0.1 3 -0.05
    vertex 0.2 3 1.73472e-18
    vertex 0.1 3 0.05
  endloop
endfacet
facet normal 0 -1 0
  outer loop
    vertex -0.1 3 -0.05
    vertex 2.05597e-17 3 0
    vertex -0.1 3 0.05
  endloop
endfacet
facet normal 0 -1 0
  outer loop
    vertex -0.7 3 -0.05
    vertex -0.6 3 0
    vertex -0.7 3 0.05
  endloop
endfacet
facet normal 0 -1 0
  outer loop
    vertex 0.7 3 0.05
    vertex 0.6 3 0
    vertex 0.7 3 -0.05
  endloop
endfacet
facet normal 0 -1 0
  outer loop
    vertex 1.1 3 0.05
    vertex 1.2 3 1.73472e-18
    vertex 1.3 3 0.05
  endloop
endfacet
facet normal 0 -1 0
  outer loop
    vertex -1.3 3 0.05
    vertex -1.2 3 0
    vertex -1.1 3 0.05
  endloop
endfacet
facet normal 0 -1 0
  outer loop
    vertex -1.1 3 -0.05
    vertex -1.2 3 0
    vertex -1.3 3 -0.05
  endloop
endfacet
facet normal 0 -1 0
  outer loop
    vertex 1.3 3 -0.05
    vertex 1.2 3 1.73472e-18
    vertex 1.1 3 -0.05
  endloop
endfacet
facet normal 0 -1 0
  outer loop
    vertex -0.9 3 -0.05
    vertex -1 3 -1.73472e-18
    vertex -1.1 3 -0.05
  endloop
endfacet
facet normal 0 -1 0
  outer loop
    vertex -0.7 3 -0.05
    vertex -0.8 3 -1.73472e-18
    vertex -0.9 3 -0.05
  endloop
endfacet
facet normal 0 -1 0
  outer loop
    vertex -0.5 3 -0.05
    vertex -0.6 3 0
    vertex -0.7 3 -0.05
  endloop
endfacet
facet normal 0 -1 0
  outer loop
    vertex -0.3 3 -0.05
    vertex -0.4 3 0
    vertex -0.5 3 -0.05
  endloop
endfacet
facet normal 0 -1 0
  outer loop
    vertex -0.1 3 -0.05
    vertex -0.2 3 -1.73472e-18
    vertex -0.3 3 -0.05
  endloop
endfacet
facet normal 0 -1 0
  outer loop
    vertex 0.1 3 -0.05
    vertex 2.05597e-17 3 0
    vertex -0.1 3 -0.05
  endloop
endfacet
facet normal 0 -1 0
  outer loop
    vertex 0.3 3 -0.05
    vertex 0.2 3 1.73472e-18
    vertex 0.1 3 -0.05
  endloop
endfacet
facet normal 0 -1 0
  outer loop
    vertex 0.5 3 -0.05
    vertex 0.4 3 -1.73472e-18
    vertex 0.3 3 -0.05
  endloop
endfacet
facet normal 0 -1 0
  outer loop
    vertex 0.7 3 -0.05
    vertex 0.6 3 0
    vertex 0.5 3 -0.05
  endloop
endfacet
facet normal 0 -1 0
  outer loop
    vertex 0.9 3 -0.05
    vertex 0.8 3 0
    vertex 0.7 3 -0.05
  endloop
endfacet
facet normal 0 -1 0
  outer loop
    vertex 1.1 3 -0.05
    vertex 1 3 3.17207e-16
    vertex 0.9 3 -0.05
  endloop
endfacet
facet normal 0 -1 0
  outer loop
    vertex 0.9 3 0.05
    vertex 1 3 3.17207e-16
    vertex 1.1 3 0.05
  endloop
endfacet
facet normal 0 -1 0
  outer loop
    vertex 0.7 3 0.05
    vertex 0.8 3 0
    vertex 0.9 3 0.05
  endloop
endfacet
facet normal 0 -1 0
  outer loop
    vertex 0.5 3 0.05
    vertex 0.6 3 0
    vertex 0.7 3 0.05
  endloop
endfacet
facet normal 0 -1 0
  outer loop
    vertex 0.3 3 0.05
    vertex 0.4 3 -1.73472e-18
    vertex 0.5 3 0.05
  endloop
endfacet
facet normal 0 -1 0
  outer loop
    vertex 0.1 3 0.05
    vertex 0.2 3 1.73472e-18
    vertex 0.3 3 0.05
  endloop
endfacet
facet normal 0 -1 0
  outer loop
    vertex -0.1 3 0.05
    vertex 2.05597e-17 3 0
    vertex 0.1 3 0.05
  endloop
endfacet
facet normal 0 -1 0
  outer loop
    vertex -0.3 3 0.05
    vertex -0.2 3 -1.73472e-18
    vertex -0.1 3 0.05
  endloop
endfacet
facet normal 0 -1 0
  outer loop
    vertex -0.5 3 0.05
    vertex -0.4 3 0
    vertex -0.3 3 0.05
  endloop
endfacet
facet normal 0 -1 0
  outer loop
    vertex -0.7 3 0.05
    vertex -0.6 3 0
    vertex -0.5 3 0.05
  endloop
endfacet
facet normal 0 -1 0
  outer loop
    vertex -0.9 3 0.05
    vertex -0.8 3 -1.73472e-18
    vertex -0.7 3 0.05
  endloop
endfacet
facet normal 0 -1 0
  outer loop
    vertex -1.1 3 0.05
    vertex -1 3 -1.73472e-18
    vertex -0.9 3 0.05
  endloop
endfacet
endsolid Created by Gmsh
