solid Created by Gmsh
facet normal 0 -1 -0
  outer loop
    vertex 0.5 0 0.05
    vertex 0.4 0 0
    vertex 0.5 0 -0.05
  endloop
endfacet
facet normal 0 -1 0
  outer loop
    vertex -0.5 0 -0.05
    vertex -0.4 0 0
    vertex -0.5 0 0.05
  endloop
endfacet
facet normal 0 -1 0
  outer loop
    vertex -0.3 0 -0.05
    vertex -0.2 0 8.85063e-19
    vertex -0.3 0 0.05
  endloop
endfacet
facet normal 0 -1 -0
  outer loop
    vertex -0.3 0 0.05
    vertex -0.4 0 0
    vertex -0.3 0 -0.05
  endloop
endfacet
facet normal 0 -1 -0
  outer loop
    vertex -0.1 0 0.05
    vertex -0.2 0 8.85063e-19
    vertex -0.1 0 -0.05
  endloop
endfacet
facet normal 0 -1 0
  outer loop
    vertex 0.1 0 -0.05
    vertex 0.2 0 -9.03126e-19
    vertex 0.1 0 0.05
  endloop
endfacet
facet normal 0 -1 -0
  outer loop
    vertex 0.3 0 0.05
    vertex 0.2 0 -9.03126e-19
    vertex 0.3 0 -0.05
  endloop
endfacet
facet normal 0 -1 0
  outer loop
    vertex 0.3 0 -0.05
    vertex 0.4 0 0
    vertex 0.3 0 0.05
  endloop
endfacet
facet normal 0 -1 0
  outer loop
    vertex -0.1 0 -0.05
    vertex -6.30809e-18 0 0
    vertex -0.1 0 0.05
  endloop
endfacet
facet normal 0 -1 -0
  outer loop
    vertex 0.1 0 0.05
    vertex -6.30809e-18 0 0
    vertex 0.1 0 -0.05
  endloop
endfacet
facet normal 0 -1 0
  outer loop
    vertex 0.5 0 -0.05
    vertex 0.4 0 0
    vertex 0.3 0 -0.05
  endloop
endfacet
facet normal 0 -1 0
  outer loop
    vertex -0.3 0 -0.05
    vertex -0.4 0 0
    vertex -0.5 0 -0.05
  endloop
endfacet
facet normal 0 -1 0
  outer loop
    vertex -0.5 0 0.05
    vertex -0.4 0 0
    vertex -0.3 0 0.05
  endloop
endfacet
facet normal 0 -1 0
  outer loop
    vertex 0.3 0 0.05
    vertex 0.4 0 0
    vertex 0.5 0 0.05
  endloop
endfacet
facet normal 0 -1 0
  outer loop
    vertex -0.1 0 -0.05
    vertex -0.2 0 8.85063e-19
    vertex -0.3 0 -0.05
  endloop
endfacet
facet normal 0 -1 0
  outer loop
    vertex 0.1 0 -0.05
    vertex -6.30809e-18 0 0
    vertex -0.1 0 -0.05
  endloop
endfacet
facet normal 0 -1 0
  outer loop
    vertex 0.3 0 -0.05
    vertex 0.2 0 -9.03126e-19
    vertex 0.1 0 -0.05
  endloop
endfacet
facet normal 0 -1 0
  outer loop
    vertex 0.1 0 0.05
    vertex 0.2 0 -9.03126e-19
    vertex 0.3 0 0.05
  endloop
endfacet
facet normal 0 -1 0
  outer loop
    vertex -0.1 0 0.05
    vertex -6.30809e-18 0 0
    vertex 0.1 0 0.05
  endloop
endfacet
facet normal 0 -1 0
  outer loop
    vertex -0.3 0 0.05
    vertex -0.2 0 8.85063e-19
    vertex -0.1 0 0.05
  endloop
endfacet
endsolid Created by Gmsh
