solid Created by Gmsh
facet normal 0 -1 0
  outer loop
    vertex -0.1 0 -0.075
    vertex -0.2 0 0
    vertex -0.3 0 -0.075
  endloop
endfacet
facet normal 0 -1 0
  outer loop
    vertex 0.1 0 0.075
    vertex 0.2 0 0
    vertex 0.3 0 0.075
  endloop
endfacet
facet normal 0 -1 0
  outer loop
    vertex 0.3 0 -0.075
    vertex 0.2 0 0
    vertex 0.1 0 -0.075
  endloop
endfacet
facet normal 0 -1 0
  outer loop
    vertex -0.3 0 0.075
    vertex -0.2 0 0
    vertex -0.1 0 0.075
  endloop
endfacet
facet normal 0 -1 0
  outer loop
    vertex -0.1 0 0.075
    vertex 1.27213e-17 0 -3.46945e-18
    vertex 0.1 0 0.075
  endloop
endfacet
facet normal 0 -1 0
  outer loop
    vertex 0.1 0 -0.075
    vertex 1.27213e-17 0 -3.46945e-18
    vertex -0.1 0 -0.075
  endloop
endfacet
facet normal 0 -1 0
  outer loop
    vertex -0.1 0 -0.075
    vertex 1.27213e-17 0 -3.46945e-18
    vertex -0.1 0 0.075
  endloop
endfacet
facet normal 0 -1 -0
  outer loop
    vertex 0.3 0 0.075
    vertex 0.2 0 0
    vertex 0.3 0 -0.075
  endloop
endfacet
facet normal 0 -1 0
  outer loop
    vertex -0.3 0 -0.075
    vertex -0.2 0 0
    vertex -0.3 0 0.075
  endloop
endfacet
facet normal 0 -1 -0
  outer loop
    vertex -0.1 0 0.075
    vertex -0.2 0 0
    vertex -0.1 0 -0.075
  endloop
endfacet
facet normal 0 -1 0
  outer loop
    vertex 0.1 0 -0.075
    vertex 0.2 0 0
    vertex 0.1 0 0.075
  endloop
endfacet
facet normal 0 -1 -0
  outer loop
    vertex 0.1 0 0.075
    vertex 1.27213e-17 0 -3.46945e-18
    vertex 0.1 0 -0.075
  endloop
endfacet
endsolid Created by Gmsh
